<svg width="26" height="27" viewBox="0 0 26 27" fill="none" xmlns="http://www.w3.org/2000/svg">
<path d="M13 13.4724C15.2533 11.2082 20.8867 15.1711 13 20.2681C5.11117 15.1711 10.7467 11.2082 13 13.4724Z" fill="#0DB25A"/>
<path fill-rule="evenodd" clip-rule="evenodd" d="M6.63899 2.81097C6.82734 2.71678 7.03507 2.66782 7.24566 2.66797H18.7561C18.9663 2.66797 19.1736 2.71692 19.3617 2.81093C19.5497 2.90495 19.7133 3.04145 19.8394 3.20964L23.6982 8.35547C23.786 8.47247 23.8337 8.61547 23.8337 8.76172V22.9805C23.8337 23.3396 23.691 23.6841 23.437 23.938C23.1831 24.192 22.8386 24.3346 22.4795 24.3346H3.52116C3.16201 24.3346 2.81757 24.192 2.56362 23.938C2.30966 23.6841 2.16699 23.3396 2.16699 22.9805V8.76172C2.16699 8.61547 2.21466 8.47247 2.30241 8.35547L6.16233 3.20964C6.28816 3.04159 6.45135 2.90511 6.63899 2.81097ZM12.3232 4.02214H7.24458L4.19933 8.08464H12.3243V4.02214H12.3232ZM13.6774 4.02214V8.08464H21.8024L18.755 4.02214H13.6774ZM22.4795 22.9805V9.4388H3.52116V22.9805H22.4795Z" fill="#0DB25A"/>
</svg>
