<svg width="16" height="16" viewBox="0 0 16 16" fill="none" xmlns="http://www.w3.org/2000/svg">
<path fill-rule="evenodd" clip-rule="evenodd" d="M8 16C12.4183 16 16 12.4183 16 8C16 3.58173 12.4183 0 8 0C3.58173 0 0 3.58173 0 8C0 12.4183 3.58173 16 8 16ZM12.0455 4.93159C12.2443 4.59088 12.1294 4.15349 11.7886 3.95464C11.4479 3.75579 11.0105 3.87079 10.8117 4.2115L7.22731 10.3529L5.01767 8.58521C4.70962 8.33878 4.26013 8.38872 4.01369 8.69677C3.76726 9.0048 3.8172 9.4543 4.12525 9.70073L6.46495 11.5725C6.60875 11.6898 6.77666 11.7739 6.95673 11.819C7.13722 11.8641 7.32543 11.8688 7.5079 11.8327C7.68763 11.7983 7.85799 11.7258 8.00753 11.6203C8.15825 11.5139 8.28458 11.3759 8.37742 11.2164L12.0455 4.93159Z" fill="#0DB25A"/>
</svg>
