<svg width="17" height="20" viewBox="0 0 17 20" fill="none" xmlns="http://www.w3.org/2000/svg">
<path d="M13.4909 19.0919C15.5382 17.0932 15.6768 14.5322 15.9282 12.9984C16.3617 10.3545 13.4907 9.2692 10.3133 8.65342L10.7214 2.74696C10.7851 1.82551 10.0548 1.04298 9.13115 1.04297C8.32225 1.04296 7.64157 1.6488 7.54778 2.45224L6.88549 8.02613L5.42654 2.72728C5.16932 1.79304 4.19842 1.21817 3.2557 1.44191C2.31452 1.66529 1.75543 2.60077 2.00458 3.53529L4.03374 11.146M4.64438 19.0912C1.87965 17.9886 1.44781 15.1891 1.57405 13.2337C1.65342 12.0046 2.76959 11.1484 4.00134 11.1484H8.46587C9.27167 11.1484 9.9249 11.8017 9.9249 12.6075C9.9249 13.2822 9.46222 13.869 8.80607 14.0263L6.27884 14.6322C7.07509 14.5018 8.89394 15.3053 8.961 17.0584" stroke="#102938" style="stroke:#102938;stroke:color(display-p3 0.0620 0.1626 0.2183);stroke-opacity:1;" stroke-width="1.5" stroke-linecap="round" stroke-linejoin="round"/>
</svg>
