<svg width="20" height="20" viewBox="0 0 20 20" fill="none" xmlns="http://www.w3.org/2000/svg">
<g clip-path="url(#clip0_17256_15640)">
<path fill-rule="evenodd" clip-rule="evenodd" d="M9.99935 1.66602C5.39697 1.66602 1.66602 5.39697 1.66602 9.99935C1.66602 11.574 2.10356 13.0488 2.86398 14.3063L2.12086 16.8328C1.93287 17.472 2.52672 18.0658 3.16581 17.8778L5.69244 17.1347C6.94983 17.8952 8.42468 18.3327 9.99935 18.3327C14.6017 18.3327 18.3327 14.6017 18.3327 9.99935C18.3327 5.39697 14.6017 1.66602 9.99935 1.66602ZM8.11452 11.8849C9.79993 13.5703 11.4093 13.7925 11.9776 13.8134C12.8419 13.8453 13.6835 13.1852 14.0116 12.4195C14.092 12.232 14.0719 12.0064 13.9373 11.8338C13.4812 11.2498 12.8638 10.8313 12.2605 10.4147C11.9998 10.2343 11.6414 10.2902 11.4494 10.5456L10.9488 11.3082C10.8933 11.3928 10.7828 11.4218 10.695 11.3716C10.3563 11.1779 9.86235 10.8477 9.50702 10.4923C9.1521 10.1374 8.84193 9.66585 8.66785 9.34893C8.6221 9.2656 8.64743 9.16268 8.72368 9.10602L9.49327 8.53452C9.72277 8.33585 9.7631 7.99841 9.59418 7.75125C9.22018 7.20409 8.78451 6.50868 8.15393 6.04873C7.98171 5.9231 7.76385 5.909 7.58397 5.98608C6.81743 6.3146 6.15413 7.15592 6.186 8.02181C6.20692 8.5901 6.42912 10.1995 8.11452 11.8849Z" fill="#fff" />
</g>
<defs>
<clipPath id="clip0_17256_15640">
<rect width="20" height="20" fill="white"/>
</clipPath>
</defs>
</svg>
