<svg width="20" height="20" viewBox="0 0 20 20" fill="none" xmlns="http://www.w3.org/2000/svg">
<g clip-path="url(#clip0_17256_15652)">
<path fill-rule="evenodd" clip-rule="evenodd" d="M11.3998 18.5098C12.1775 19.1514 13.1513 19.5076 14.1594 19.519C15.1675 19.5304 16.1491 19.1965 16.9411 18.5726L17.6312 18.0286C17.9376 17.7843 18.1353 17.4291 18.1813 17.0399C18.2273 16.6508 18.118 16.2592 17.877 15.9501L15.5844 13.061C15.3428 12.7559 14.9902 12.5589 14.6037 12.5132C14.2172 12.4675 13.8284 12.5767 13.5222 12.817C13.2132 13.058 12.8216 13.1673 12.4325 13.1213C12.0433 13.0752 11.688 12.8775 11.4438 12.5711L7.79296 7.94062C7.55201 7.6316 7.44268 7.24 7.48871 6.85086C7.53475 6.46171 7.73244 6.10644 8.03885 5.86217C8.34393 5.62055 8.54088 5.26792 8.5866 4.88144C8.63233 4.49496 8.52309 4.10611 8.28281 3.79997L6.08954 0.906078C5.84527 0.599666 5.49 0.401979 5.10085 0.355943C4.71171 0.309906 4.32011 0.419236 4.01109 0.660193L3.32105 1.20423C2.51814 1.81731 1.94977 2.6872 1.7108 3.66874C1.47183 4.65028 1.57671 5.68409 2.00793 6.59763C4.34215 11.1362 7.53121 15.181 11.3998 18.5098Z" fill="#fff" />
</g>
<defs>
<clipPath id="clip0_17256_15652">
<rect width="20" height="20" fill="white" />
</clipPath>
</defs>
</svg>
