<svg width="20" height="20" viewBox="0 0 20 20" fill="none" xmlns="http://www.w3.org/2000/svg">
<path d="M10.0004 1.79688C8.7164 1.79865 7.45079 2.1018 6.30537 2.68192C5.15994 3.26203 4.16669 4.10293 3.40552 5.13693C2.64435 6.17093 2.13653 7.36917 1.92292 8.63523C1.70931 9.90129 1.79587 11.1998 2.17563 12.4263C2.5554 13.6528 3.21777 14.7731 4.10945 15.6969C5.00112 16.6207 6.09721 17.3223 7.30949 17.7453C8.52178 18.1682 9.81643 18.3007 11.0893 18.132C12.3621 17.9634 13.5776 17.4983 14.6379 16.7742L13.3097 14.8422C12.2288 15.5827 10.9311 15.94 9.6235 15.8571C8.31589 15.7741 7.07372 15.2556 6.09511 14.3844C5.1165 13.5132 4.45781 12.3393 4.2241 11.0501C3.99039 9.76088 4.19512 8.43052 4.80563 7.27121C5.41615 6.1119 6.39729 5.19042 7.59257 4.65373C8.78785 4.11703 10.1284 3.99605 11.4005 4.31006C12.6725 4.62408 13.8028 5.35501 14.611 6.38628C15.4192 7.41755 15.8588 8.68976 15.8597 10V10.6117C15.8597 11.1125 15.748 11.9531 15.0004 11.9531H14.6879C14.5265 11.9014 14.3792 11.8132 14.2572 11.6955C14.1353 11.5778 14.0421 11.4337 13.9847 11.2742V10C13.9951 9.08769 13.6955 8.19887 13.1351 7.47893C12.5746 6.75899 11.7864 6.25055 10.8995 6.03678C10.0125 5.82302 9.07921 5.91657 8.25232 6.30215C7.42543 6.68772 6.75385 7.34249 6.34746 8.15936C5.94106 8.97622 5.82389 9.90681 6.01512 10.7989C6.20635 11.691 6.69466 12.4918 7.40017 13.0703C8.10568 13.6489 8.98663 13.9708 9.89891 13.9836C10.8112 13.9964 11.7008 13.6992 12.4222 13.1406C12.6981 13.481 13.0423 13.7597 13.4325 13.9588C13.8227 14.158 14.2504 14.2731 14.6879 14.2969H15.0004C16.8863 14.2969 18.2035 12.7812 18.2035 10.6117V10C18.201 7.82516 17.3359 5.7401 15.7981 4.20226C14.2603 2.66441 12.1752 1.79936 10.0004 1.79688ZM10.0004 11.6406C9.67587 11.6406 9.35867 11.5444 9.08887 11.3641C8.81907 11.1839 8.60879 10.9276 8.48461 10.6278C8.36044 10.3281 8.32795 9.99818 8.39125 9.67993C8.45456 9.36168 8.61081 9.06935 8.84026 8.8399C9.0697 8.61046 9.36203 8.4542 9.68028 8.3909C9.99853 8.3276 10.3284 8.36009 10.6282 8.48426C10.928 8.60844 11.1842 8.81872 11.3645 9.08852C11.5448 9.35832 11.641 9.67552 11.641 10C11.641 10.4351 11.4681 10.8524 11.1604 11.1601C10.8528 11.4678 10.4355 11.6406 10.0004 11.6406Z" fill="#fff" />
</svg>
