<svg width="187" height="30" viewBox="0 0 187 30" fill="none" xmlns="http://www.w3.org/2000/svg">
<path d="M0 7.50002C0 3.35788 3.35787 0 7.50002 0H23.9094V15H7.50001C3.35787 15 0 11.6422 0 7.50002Z" fill="#FFB306" style="fill:#FFB306;fill:color(display-p3 1.0000 0.7020 0.0235);fill-opacity:1;"/>
<path d="M30 22.5C30 26.6421 26.6421 30 22.5 30L6.40414 30L6.40414 15L22.5 15C26.6421 15 30 18.3578 30 22.5Z" fill="#0DB25A" style="fill:#0DB25A;fill:color(display-p3 0.0510 0.6980 0.3529);fill-opacity:1;"/>
<path d="M15 22.5C15 26.6421 11.6421 30 7.49998 30L6.00815e-05 30L6.07687e-05 22.1386C6.11134e-05 18.196 3.19615 15 7.13872 15L7.49998 15C11.6421 15 15 18.3578 15 22.5Z" fill="#0067A0" style="fill:#0067A0;fill:color(display-p3 0.0000 0.4039 0.6275);fill-opacity:1;"/>
<path d="M15 7.50002C15 3.35788 18.3579 0 22.5 0L29.9999 0V7.86138C29.9999 11.804 26.8039 15 22.8613 15H22.5C18.3579 15 15 11.6422 15 7.50002Z" fill="#FF6701" style="fill:#FF6701;fill:color(display-p3 1.0000 0.4039 0.0039);fill-opacity:1;"/>
<path d="M174.096 27.1301C173.043 27.1301 172.047 26.9878 171.108 26.7033C170.17 26.4188 169.33 26.0063 168.591 25.4657C167.851 24.8967 167.254 24.1997 166.798 23.3746C166.372 22.5211 166.158 21.5254 166.158 20.3874C166.158 18.9364 166.443 17.7557 167.012 16.8453C167.581 15.9064 168.349 15.1952 169.316 14.7115C170.312 14.2279 171.436 13.9007 172.687 13.73C173.939 13.5308 175.248 13.4313 176.614 13.4313H181.009C181.009 12.4355 180.853 11.582 180.54 10.8707C180.227 10.131 179.729 9.54781 179.046 9.12105C178.392 8.6943 177.538 8.48092 176.485 8.48092C175.803 8.48092 175.163 8.56627 174.565 8.73697C173.996 8.87922 173.498 9.12105 173.072 9.46246C172.673 9.77541 172.389 10.1879 172.218 10.7H166.884C167.083 9.53358 167.481 8.53782 168.079 7.71276C168.704 6.85925 169.458 6.16222 170.34 5.62167C171.251 5.08111 172.246 4.68281 173.328 4.42675C174.409 4.14225 175.504 4 176.614 4C179.885 4 182.261 4.93886 183.74 6.81658C185.248 8.6943 186.002 11.3259 186.002 14.7115V26.8314H181.393L181.265 23.9294C180.611 24.8967 179.828 25.608 178.918 26.0632C178.008 26.5184 177.126 26.8029 176.272 26.9167C175.419 27.059 174.693 27.1301 174.096 27.1301ZM175.12 22.9052C176.258 22.9052 177.268 22.6918 178.15 22.2651C179.032 21.8383 179.729 21.2409 180.241 20.4727C180.781 19.7046 181.052 18.8226 181.052 17.8268V17.1014H176.955C176.272 17.1014 175.589 17.1298 174.907 17.1867C174.252 17.2152 173.655 17.329 173.114 17.5281C172.574 17.6988 172.133 17.9691 171.791 18.3389C171.478 18.7088 171.322 19.2351 171.322 19.9179C171.322 20.6007 171.493 21.1555 171.834 21.5823C172.204 22.009 172.673 22.3362 173.242 22.5638C173.84 22.7914 174.466 22.9052 175.12 22.9052Z" fill="#102938" style="fill:#102938;fill:color(display-p3 0.0620 0.1626 0.2183);fill-opacity:1;"/>
<path d="M150.893 26.8314V4.3414H155.629L155.928 7.28601C156.497 6.4325 157.137 5.77814 157.849 5.32294C158.588 4.83928 159.371 4.49788 160.196 4.29873C161.049 4.09958 161.903 4 162.756 4C163.069 4 163.354 4 163.61 4C163.894 4 164.122 4.01422 164.292 4.04267V8.99302H162.927C161.447 8.99302 160.196 9.27753 159.171 9.84653C158.147 10.4155 157.379 11.2264 156.867 12.279C156.355 13.3317 156.099 14.6262 156.099 16.1625V26.8314H150.893Z" fill="#102938" style="fill:#102938;fill:color(display-p3 0.0620 0.1626 0.2183);fill-opacity:1;"/>
<path d="M136.886 27.1301C134.553 27.1301 132.561 26.6464 130.911 25.6791C129.29 24.7118 128.052 23.3746 127.199 21.6676C126.373 19.9322 125.961 17.9264 125.961 15.6504C125.961 13.3744 126.388 11.3686 127.241 9.63316C128.123 7.86924 129.375 6.4894 130.997 5.49364C132.647 4.49788 134.624 4 136.928 4C138.635 4 140.129 4.31295 141.409 4.93886C142.689 5.53632 143.756 6.36137 144.61 7.41403C145.492 8.46669 146.146 9.66161 146.573 10.9988C147 12.3359 147.199 13.7442 147.17 15.2236C147.142 15.565 147.113 15.9064 147.085 16.2479C147.056 16.5608 147.014 16.9022 146.957 17.2721H131.167C131.253 18.2678 131.509 19.1782 131.935 20.0033C132.391 20.8283 133.016 21.4827 133.813 21.9664C134.638 22.45 135.662 22.6918 136.886 22.6918C137.597 22.6918 138.28 22.6065 138.934 22.4358C139.588 22.2366 140.157 21.9521 140.641 21.5823C141.153 21.2124 141.495 20.743 141.665 20.174H146.872C146.502 21.7957 145.819 23.1186 144.823 24.1428C143.827 25.167 142.633 25.9209 141.238 26.4046C139.873 26.8883 138.422 27.1301 136.886 27.1301ZM131.253 13.3886H142.092C142.092 12.4497 141.879 11.5962 141.452 10.8281C141.025 10.0599 140.413 9.46246 139.617 9.0357C138.849 8.5805 137.91 8.35289 136.8 8.35289C135.605 8.35289 134.61 8.59472 133.813 9.07838C133.016 9.56203 132.405 10.1879 131.978 10.9561C131.551 11.7243 131.309 12.5351 131.253 13.3886Z" fill="#102938" style="fill:#102938;fill:color(display-p3 0.0620 0.1626 0.2183);fill-opacity:1;"/>
<path d="M95.305 26.8322L88.2637 4.34229H94.0248L98.5483 21.1137L103.371 4.34229H109.516L114.338 21.1137L118.819 4.34229H124.494L117.453 26.8322H111.223L106.358 10.6156L101.536 26.8322H95.305Z" fill="#102938" style="fill:#102938;fill:color(display-p3 0.0620 0.1626 0.2183);fill-opacity:1;"/>
<path d="M76.5614 27.1301C74.2286 27.1301 72.2371 26.6464 70.587 25.6791C68.9653 24.7118 67.7278 23.3746 66.8743 21.6676C66.0492 19.9322 65.6367 17.9264 65.6367 15.6504C65.6367 13.3744 66.0635 11.3686 66.917 9.63316C67.7989 7.86924 69.0507 6.4894 70.6723 5.49364C72.3224 4.49788 74.2997 4 76.6041 4C78.3111 4 79.8047 4.31295 81.085 4.93886C82.3652 5.53632 83.4321 6.36137 84.2856 7.41403C85.1675 8.46669 85.8219 9.66161 86.2486 10.9988C86.6753 12.3359 86.8745 13.7442 86.846 15.2236C86.8176 15.565 86.7891 15.9064 86.7607 16.2479C86.7322 16.5608 86.6896 16.9022 86.6327 17.2721H70.843C70.9284 18.2678 71.1844 19.1782 71.6112 20.0033C72.0664 20.8283 72.6923 21.4827 73.4889 21.9664C74.3139 22.45 75.3381 22.6918 76.5614 22.6918C77.2727 22.6918 77.9555 22.6065 78.6098 22.4358C79.2642 22.2366 79.8332 21.9521 80.3168 21.5823C80.8289 21.2124 81.1703 20.743 81.341 20.174H86.5473C86.1775 21.7957 85.4947 23.1186 84.4989 24.1428C83.5032 25.167 82.3083 25.9209 80.9143 26.4046C79.5487 26.8883 78.0977 27.1301 76.5614 27.1301ZM70.9284 13.3886H81.7678C81.7678 12.4497 81.5544 11.5962 81.1276 10.8281C80.7009 10.0599 80.0892 9.46246 79.2926 9.0357C78.5245 8.5805 77.5856 8.35289 76.4761 8.35289C75.2812 8.35289 74.2855 8.59472 73.4889 9.07838C72.6923 9.56203 72.0806 10.1879 71.6539 10.9561C71.2271 11.7243 70.9853 12.5351 70.9284 13.3886Z" fill="#102938" style="fill:#102938;fill:color(display-p3 0.0620 0.1626 0.2183);fill-opacity:1;"/>
<path d="M53.741 27.1301C52.6599 27.1301 51.5788 27.0163 50.4977 26.7887C49.445 26.5611 48.4493 26.1912 47.5105 25.6791C46.5716 25.1386 45.7892 24.4131 45.1633 23.5027C44.5375 22.5923 44.1249 21.4543 43.9258 20.0886H49.1748C49.4024 20.7145 49.758 21.2267 50.2416 21.625C50.7537 21.9948 51.337 22.2793 51.9913 22.4785C52.6741 22.6492 53.3427 22.7345 53.997 22.7345C54.3953 22.7345 54.8221 22.7061 55.2773 22.6492C55.7609 22.5923 56.2019 22.4785 56.6002 22.3078C57.0269 22.1371 57.3683 21.8952 57.6244 21.5823C57.8804 21.2409 58.0084 20.7999 58.0084 20.2593C58.0084 19.7472 57.8662 19.3489 57.5817 19.0644C57.2972 18.7515 56.9131 18.5096 56.4295 18.3389C55.9458 18.1398 55.3626 17.9833 54.6798 17.8695C53.4565 17.6135 52.1478 17.3432 50.7537 17.0587C49.3597 16.7457 48.1506 16.2621 47.1264 15.6077C46.6996 15.3517 46.3298 15.0529 46.0168 14.7115C45.7039 14.3701 45.4336 14.0003 45.206 13.602C45.0069 13.1752 44.8504 12.72 44.7366 12.2364C44.6513 11.7527 44.6086 11.2264 44.6086 10.6574C44.6086 9.46246 44.8504 8.45247 45.334 7.62741C45.8461 6.7739 46.5147 6.0911 47.3398 5.57899C48.1933 5.03844 49.1605 4.64013 50.2416 4.38408C51.3227 4.12803 52.4323 4 53.5703 4C55.1066 4 56.5006 4.24183 57.7524 4.72548C59.0042 5.20914 60.0426 5.94884 60.8676 6.9446C61.7211 7.94036 62.2332 9.2064 62.4039 10.7427H57.4537C57.3114 10.0315 56.8704 9.46246 56.1307 9.0357C55.4195 8.60895 54.5091 8.39557 53.3996 8.39557C53.0013 8.39557 52.5887 8.43824 52.162 8.5236C51.7353 8.5805 51.3227 8.6943 50.9244 8.865C50.5546 9.00725 50.2416 9.23485 49.9856 9.54781C49.758 9.86076 49.6442 10.2448 49.6442 10.7C49.6442 11.1268 49.7438 11.4967 49.9429 11.8096C50.1705 12.1226 50.4977 12.3928 50.9244 12.6204C51.3796 12.8196 51.906 12.9903 52.5034 13.1325C53.4707 13.3317 54.4807 13.5308 55.5333 13.73C56.5859 13.9292 57.4963 14.1283 58.2645 14.3275C59.1749 14.5835 59.9999 14.9534 60.7396 15.437C61.4793 15.8922 62.0483 16.5039 62.4466 17.2721C62.8733 18.0118 63.0867 18.9649 63.0867 20.1313C63.0867 21.4969 62.8022 22.6349 62.2332 23.5453C61.6927 24.4558 60.9672 25.167 60.0568 25.6791C59.1464 26.1912 58.1365 26.5611 57.0269 26.7887C55.9174 27.0163 54.8221 27.1301 53.741 27.1301Z" fill="#102938" style="fill:#102938;fill:color(display-p3 0.0620 0.1626 0.2183);fill-opacity:1;"/>
</svg>
