<svg width="187" height="30" viewBox="0 0 187 30" fill="none" xmlns="http://www.w3.org/2000/svg">
<path d="M0 7.50002C0 3.35788 3.35787 0 7.50002 0H23.9094V15H7.50001C3.35787 15 0 11.6422 0 7.50002Z" fill="#FFB306" style="fill:#FFB306;fill:color(display-p3 1.0000 0.7020 0.0235);fill-opacity:1;"/>
<path d="M30 22.5C30 26.6421 26.6421 30 22.5 30L6.40414 30L6.40414 15L22.5 15C26.6421 15 30 18.3578 30 22.5Z" fill="#0DB25A" style="fill:#0DB25A;fill:color(display-p3 0.0510 0.6980 0.3529);fill-opacity:1;"/>
<path d="M15 22.5C15 26.6421 11.6421 30 7.49998 30L6.00815e-05 30L6.07687e-05 22.1386C6.11134e-05 18.196 3.19615 15 7.13872 15L7.49998 15C11.6421 15 15 18.3578 15 22.5Z" fill="#0067A0" style="fill:#0067A0;fill:color(display-p3 0.0000 0.4039 0.6275);fill-opacity:1;"/>
<path d="M15 7.50002C15 3.35788 18.3579 0 22.5 0L29.9999 0V7.86138C29.9999 11.804 26.8039 15 22.8613 15H22.5C18.3579 15 15 11.6422 15 7.50002Z" fill="#FF6701" style="fill:#FF6701;fill:color(display-p3 1.0000 0.4039 0.0039);fill-opacity:1;"/>
<path d="M174.098 27.1301C173.045 27.1301 172.049 26.9878 171.11 26.7033C170.172 26.4188 169.332 26.0063 168.593 25.4657C167.853 24.8967 167.255 24.1997 166.8 23.3746C166.374 22.5211 166.16 21.5254 166.16 20.3874C166.16 18.9364 166.445 17.7557 167.014 16.8453C167.583 15.9064 168.351 15.1952 169.318 14.7115C170.314 14.2279 171.438 13.9007 172.689 13.73C173.941 13.5308 175.25 13.4313 176.615 13.4313H181.011C181.011 12.4355 180.854 11.582 180.542 10.8707C180.229 10.131 179.731 9.54781 179.048 9.12105C178.394 8.6943 177.54 8.48092 176.487 8.48092C175.805 8.48092 175.165 8.56627 174.567 8.73697C173.998 8.87922 173.5 9.12105 173.073 9.46246C172.675 9.77541 172.391 10.1879 172.22 10.7H166.886C167.085 9.53358 167.483 8.53782 168.081 7.71276C168.706 6.85925 169.46 6.16222 170.342 5.62167C171.253 5.08111 172.248 4.68281 173.33 4.42675C174.411 4.14225 175.506 4 176.615 4C179.887 4 182.263 4.93886 183.742 6.81658C185.25 8.6943 186.004 11.3259 186.004 14.7115V26.8314H181.395L181.267 23.9294C180.613 24.8967 179.83 25.608 178.92 26.0632C178.009 26.5184 177.128 26.8029 176.274 26.9167C175.421 27.059 174.695 27.1301 174.098 27.1301ZM175.122 22.9052C176.26 22.9052 177.27 22.6918 178.152 22.2651C179.034 21.8383 179.731 21.2409 180.243 20.4727C180.783 19.7046 181.054 18.8226 181.054 17.8268V17.1014H176.957C176.274 17.1014 175.591 17.1298 174.908 17.1867C174.254 17.2152 173.657 17.329 173.116 17.5281C172.576 17.6988 172.135 17.9691 171.793 18.3389C171.48 18.7088 171.324 19.2351 171.324 19.9179C171.324 20.6007 171.494 21.1555 171.836 21.5823C172.206 22.009 172.675 22.3362 173.244 22.5638C173.842 22.7914 174.467 22.9052 175.122 22.9052Z" fill="#F8FAFC" style="fill:#F8FAFC;fill:color(display-p3 0.9725 0.9804 0.9882);fill-opacity:1;"/>
<path d="M150.894 26.8314V4.3414H155.63L155.929 7.28601C156.498 6.4325 157.138 5.77814 157.85 5.32294C158.589 4.83928 159.372 4.49788 160.197 4.29873C161.05 4.09958 161.904 4 162.757 4C163.07 4 163.355 4 163.611 4C163.895 4 164.123 4.01422 164.293 4.04267V8.99302H162.928C161.448 8.99302 160.197 9.27753 159.172 9.84653C158.148 10.4155 157.38 11.2264 156.868 12.279C156.356 13.3317 156.1 14.6262 156.1 16.1625V26.8314H150.894Z" fill="#F8FAFC" style="fill:#F8FAFC;fill:color(display-p3 0.9725 0.9804 0.9882);fill-opacity:1;"/>
<path d="M136.888 27.1301C134.555 27.1301 132.563 26.6464 130.913 25.6791C129.292 24.7118 128.054 23.3746 127.2 21.6676C126.375 19.9322 125.963 17.9264 125.963 15.6504C125.963 13.3744 126.39 11.3686 127.243 9.63316C128.125 7.86924 129.377 6.4894 130.999 5.49364C132.649 4.49788 134.626 4 136.93 4C138.637 4 140.131 4.31295 141.411 4.93886C142.691 5.53632 143.758 6.36137 144.612 7.41403C145.494 8.46669 146.148 9.66161 146.575 10.9988C147.002 12.3359 147.201 13.7442 147.172 15.2236C147.144 15.565 147.115 15.9064 147.087 16.2479C147.058 16.5608 147.016 16.9022 146.959 17.2721H131.169C131.255 18.2678 131.511 19.1782 131.937 20.0033C132.393 20.8283 133.018 21.4827 133.815 21.9664C134.64 22.45 135.664 22.6918 136.888 22.6918C137.599 22.6918 138.282 22.6065 138.936 22.4358C139.59 22.2366 140.159 21.9521 140.643 21.5823C141.155 21.2124 141.496 20.743 141.667 20.174H146.873C146.504 21.7957 145.821 23.1186 144.825 24.1428C143.829 25.167 142.634 25.9209 141.24 26.4046C139.875 26.8883 138.424 27.1301 136.888 27.1301ZM131.255 13.3886H142.094C142.094 12.4497 141.881 11.5962 141.454 10.8281C141.027 10.0599 140.415 9.46246 139.619 9.0357C138.851 8.5805 137.912 8.35289 136.802 8.35289C135.607 8.35289 134.612 8.59472 133.815 9.07838C133.018 9.56203 132.407 10.1879 131.98 10.9561C131.553 11.7243 131.311 12.5351 131.255 13.3886Z" fill="#F8FAFC" style="fill:#F8FAFC;fill:color(display-p3 0.9725 0.9804 0.9882);fill-opacity:1;"/>
<path d="M95.306 26.8322L88.2646 4.34229H94.0257L98.5493 21.1137L103.371 4.34229H109.517L114.339 21.1137L118.82 4.34229H124.495L117.454 26.8322H111.224L106.359 10.6156L101.536 26.8322H95.306Z" fill="#F8FAFC" style="fill:#F8FAFC;fill:color(display-p3 0.9725 0.9804 0.9882);fill-opacity:1;"/>
<path d="M76.5624 27.1301C74.2295 27.1301 72.238 26.6464 70.588 25.6791C68.9663 24.7118 67.7288 23.3746 66.8753 21.6676C66.0502 19.9322 65.6377 17.9264 65.6377 15.6504C65.6377 13.3744 66.0644 11.3686 66.9179 9.63316C67.7999 7.86924 69.0517 6.4894 70.6733 5.49364C72.3234 4.49788 74.3007 4 76.6051 4C78.3121 4 79.8057 4.31295 81.0859 4.93886C82.3662 5.53632 83.433 6.36137 84.2865 7.41403C85.1685 8.46669 85.8228 9.66161 86.2496 10.9988C86.6763 12.3359 86.8755 13.7442 86.847 15.2236C86.8186 15.565 86.7901 15.9064 86.7617 16.2479C86.7332 16.5608 86.6905 16.9022 86.6336 17.2721H70.844C70.9294 18.2678 71.1854 19.1782 71.6122 20.0033C72.0674 20.8283 72.6932 21.4827 73.4898 21.9664C74.3149 22.45 75.3391 22.6918 76.5624 22.6918C77.2737 22.6918 77.9565 22.6065 78.6108 22.4358C79.2652 22.2366 79.8341 21.9521 80.3178 21.5823C80.8299 21.2124 81.1713 20.743 81.342 20.174H86.5483C86.1785 21.7957 85.4957 23.1186 84.4999 24.1428C83.5042 25.167 82.3093 25.9209 80.9152 26.4046C79.5496 26.8883 78.0987 27.1301 76.5624 27.1301ZM70.9294 13.3886H81.7687C81.7687 12.4497 81.5554 11.5962 81.1286 10.8281C80.7019 10.0599 80.0902 9.46246 79.2936 9.0357C78.5255 8.5805 77.5866 8.35289 76.4771 8.35289C75.2822 8.35289 74.2864 8.59472 73.4898 9.07838C72.6932 9.56203 72.0816 10.1879 71.6548 10.9561C71.2281 11.7243 70.9863 12.5351 70.9294 13.3886Z" fill="#F8FAFC" style="fill:#F8FAFC;fill:color(display-p3 0.9725 0.9804 0.9882);fill-opacity:1;"/>
<path d="M53.7419 27.1301C52.6608 27.1301 51.5798 27.0163 50.4987 26.7887C49.446 26.5611 48.4503 26.1912 47.5114 25.6791C46.5726 25.1386 45.7902 24.4131 45.1643 23.5027C44.5384 22.5923 44.1259 21.4543 43.9268 20.0886H49.1757C49.4033 20.7145 49.759 21.2267 50.2426 21.625C50.7547 21.9948 51.3379 22.2793 51.9923 22.4785C52.6751 22.6492 53.3436 22.7345 53.998 22.7345C54.3963 22.7345 54.823 22.7061 55.2782 22.6492C55.7619 22.5923 56.2028 22.4785 56.6011 22.3078C57.0279 22.1371 57.3693 21.8952 57.6253 21.5823C57.8814 21.2409 58.0094 20.7999 58.0094 20.2593C58.0094 19.7472 57.8672 19.3489 57.5827 19.0644C57.2982 18.7515 56.9141 18.5096 56.4304 18.3389C55.9468 18.1398 55.3636 17.9833 54.6808 17.8695C53.4574 17.6135 52.1488 17.3432 50.7547 17.0587C49.3607 16.7457 48.1516 16.2621 47.1274 15.6077C46.7006 15.3517 46.3308 15.0529 46.0178 14.7115C45.7049 14.3701 45.4346 14.0003 45.207 13.602C45.0079 13.1752 44.8514 12.72 44.7376 12.2364C44.6522 11.7527 44.6096 11.2264 44.6096 10.6574C44.6096 9.46246 44.8514 8.45247 45.335 7.62741C45.8471 6.7739 46.5157 6.0911 47.3407 5.57899C48.1942 5.03844 49.1615 4.64013 50.2426 4.38408C51.3237 4.12803 52.4332 4 53.5712 4C55.1075 4 56.5016 4.24183 57.7534 4.72548C59.0052 5.20914 60.0436 5.94884 60.8686 6.9446C61.7221 7.94036 62.2342 9.2064 62.4049 10.7427H57.4546C57.3124 10.0315 56.8714 9.46246 56.1317 9.0357C55.4205 8.60895 54.5101 8.39557 53.4005 8.39557C53.0022 8.39557 52.5897 8.43824 52.163 8.5236C51.7362 8.5805 51.3237 8.6943 50.9254 8.865C50.5556 9.00725 50.2426 9.23485 49.9866 9.54781C49.759 9.86076 49.6452 10.2448 49.6452 10.7C49.6452 11.1268 49.7447 11.4967 49.9439 11.8096C50.1715 12.1226 50.4987 12.3928 50.9254 12.6204C51.3806 12.8196 51.9069 12.9903 52.5044 13.1325C53.4717 13.3317 54.4816 13.5308 55.5343 13.73C56.5869 13.9292 57.4973 14.1283 58.2655 14.3275C59.1759 14.5835 60.0009 14.9534 60.7406 15.437C61.4803 15.8922 62.0493 16.5039 62.4476 17.2721C62.8743 18.0118 63.0877 18.9649 63.0877 20.1313C63.0877 21.4969 62.8032 22.6349 62.2342 23.5453C61.6937 24.4558 60.9682 25.167 60.0578 25.6791C59.1474 26.1912 58.1374 26.5611 57.0279 26.7887C55.9183 27.0163 54.823 27.1301 53.7419 27.1301Z" fill="#F8FAFC" style="fill:#F8FAFC;fill:color(display-p3 0.9725 0.9804 0.9882);fill-opacity:1;"/>
</svg>
