<svg width="20" height="18" viewBox="0 0 20 18" fill="none" xmlns="http://www.w3.org/2000/svg">
<path d="M14.5341 1.17334H5.4507C3.36737 1.17334 1.66602 2.87474 1.66602 4.97197V10.2358C1.66602 12.1803 3.1312 13.7914 5.0132 14.0067V15.6456C5.0132 16.0969 5.27014 16.5067 5.67297 16.7081C6.04176 16.8925 6.54326 16.8689 6.91597 16.5831L10.2076 14.0345H14.5341C16.6312 14.0345 18.3327 12.3331 18.3327 10.2358V4.97197C18.3327 2.87474 16.6312 1.17334 14.5341 1.17334ZM11.8813 8.74975L9.74232 10.2636C9.31988 10.5655 8.7699 10.6192 8.28409 10.3678C7.8187 10.1247 7.52709 9.64557 7.52709 9.11779V6.09002C7.52709 5.56223 7.8187 5.08307 8.28409 4.84003C8.75627 4.59695 9.31185 4.63861 9.74232 4.94417L11.8813 6.45805C12.6735 7.02606 12.6612 8.19061 11.8813 8.74975Z" stroke="#102938" style="stroke:#102938;stroke:color(display-p3 0.0620 0.1626 0.2183);stroke-opacity:1;" stroke-width="1.5"/>
</svg>
