<svg width="24" height="24" viewBox="0 0 24 24" fill="none" xmlns="http://www.w3.org/2000/svg">
<path d="M11.599 17.6875L17.7057 11.5807M5.63742 15.6198C4.28508 14.2675 3.60891 13.5913 3.35731 12.714C3.10571 11.8367 3.32073 10.9049 3.75077 9.04141L3.99877 7.96675C4.36057 6.39896 4.54148 5.61506 5.07826 5.07826C5.61506 4.54148 6.39896 4.36057 7.96675 3.99877L9.04141 3.75077C10.9049 3.32073 11.8367 3.10571 12.714 3.35731C13.5913 3.60891 14.2675 4.28508 15.6198 5.63742L17.2207 7.23836C19.5736 9.59122 20.75 10.7677 20.75 12.2295C20.75 13.6914 19.5736 14.8678 17.2207 17.2207C14.8678 19.5736 13.6914 20.75 12.2295 20.75C10.7677 20.75 9.59122 19.5736 7.23836 17.2207L5.63742 15.6198ZM7.79368 10.5065C8.12187 10.8347 8.56699 11.019 9.03112 11.019C9.49525 11.019 9.94037 10.8347 10.2686 10.5065C10.5967 10.1783 10.7811 9.73316 10.7811 9.26904C10.7811 8.80491 10.5967 8.35979 10.2686 8.0316C10.1061 7.8691 9.91313 7.74019 9.70081 7.65225C9.48849 7.5643 9.26093 7.51904 9.03112 7.51904C8.56699 7.51904 8.12187 7.70341 7.79368 8.0316C7.63118 8.1941 7.50227 8.38702 7.41433 8.59934C7.32638 8.81166 7.28112 9.03922 7.28112 9.26904C7.28112 9.73316 7.46549 10.1783 7.79368 10.5065Z" stroke="#102938" style="stroke:#102938;stroke:color(display-p3 0.0620 0.1626 0.2183);stroke-opacity:1;" stroke-width="1.5"/>
</svg>
