<svg width="20" height="20" viewBox="0 0 20 20" fill="none" xmlns="http://www.w3.org/2000/svg">
<path d="M5.00001 3.85321C5.00001 3.85321 5.3797 2.71258 6.27501 1.99696C7.17032 1.28133 15.4703 4.34696 15.4703 4.34696C15.4703 4.34696 16.9203 4.86415 17.7781 6.23446C18.3547 7.15633 18.6766 8.51883 18.0656 10.1641C16.6094 14.0829 12.8313 13.6298 11.8469 13.4063C11.3844 13.3016 10.2578 13.0032 10.2578 13.0032C10.2578 13.0032 7.68438 15.1282 4.58751 13.4985C2.2297 12.2579 2.52188 10.4032 2.52188 10.4032C2.52188 10.4032 0.934384 8.81571 1.62188 6.60477C2.45001 3.94227 5.00001 3.85321 5.00001 3.85321Z" fill="#5B9821" style="fill:#5B9821;fill:color(display-p3 0.3569 0.5961 0.1294);fill-opacity:1;"/>
<path d="M10.3694 8.59514C12.5178 8.23733 13.1881 7.32014 13.771 6.47014C14.4131 5.53264 14.2413 4.74671 14.6881 4.72483C15.135 4.70295 15.4913 5.50921 15.0006 6.91702C14.3069 8.90764 12.8803 9.19983 12.8522 9.73577C12.8303 10.1608 14.371 10.1905 15.7616 9.51233C17.7756 8.52796 17.7756 6.22327 17.7756 6.22327C17.7756 6.22327 17.4178 5.4842 16.7241 4.97014C16.0303 4.45608 15.5147 4.18733 15.5147 4.18733C15.5147 4.18733 14.6866 1.07796 10.9288 0.56233C7.17095 0.0467054 5.62564 2.66702 5.62564 2.66702C5.62564 2.66702 5.76002 3.51702 6.40845 4.50139C6.92564 5.28733 7.46002 5.26233 7.4147 5.70921C7.38502 5.99983 6.4522 6.08889 5.46783 5.66389C4.57095 5.27639 4.34908 4.7467 4.10377 4.7467C3.85845 4.7467 1.82408 5.87952 2.67252 8.28108C3.34439 10.1826 5.5647 10.5389 5.96158 10.6076C7.12564 10.8092 7.79595 10.0483 6.96783 9.44358C6.1397 8.83889 5.22252 8.48108 5.42408 7.87795C5.64127 7.22483 6.41627 7.90608 7.34752 8.30921C8.26783 8.70764 9.38189 8.76077 10.3694 8.59514Z" fill="#8BC02B" style="fill:#8BC02B;fill:color(display-p3 0.5451 0.7529 0.1686);fill-opacity:1;"/>
<path d="M6.09766 11.0893C6.09766 11.0893 6.61328 11.0596 6.82578 10.9986C7.03828 10.9377 7.32578 10.7564 7.32578 10.7564C7.32578 10.7564 9.31797 12.8408 9.52422 13.0158C9.72578 13.1861 9.96328 10.5893 9.96328 10.5893C9.96328 10.5893 10.418 10.6596 10.843 10.5924C11.4023 10.5033 11.7836 10.3252 11.7836 10.3252C11.7836 10.3252 11.5117 11.9236 11.4055 12.5299C11.3383 12.9189 11.3148 14.0002 11.3148 14.0002L9.85859 15.2127L8.75078 14.4689C8.75078 14.4689 8.74766 14.1768 8.58359 13.9783C8.07422 13.3627 6.09766 11.0893 6.09766 11.0893Z" fill="#6D4B41" style="fill:#6D4B41;fill:color(display-p3 0.4275 0.2941 0.2549);fill-opacity:1;"/>
<path d="M11.1785 14.6527L12.2863 13.3184C12.2863 13.3184 12.6801 13.348 12.9691 13.348C13.2566 13.348 13.7582 13.2871 13.7582 13.2871C13.7582 13.2871 12.8488 14.5152 12.3629 15.1215C11.877 15.7277 11.241 16.4871 11.241 16.4871L10.6348 14.7277L11.1785 14.6527Z" fill="#6D4B41" style="fill:#6D4B41;fill:color(display-p3 0.4275 0.2941 0.2549);fill-opacity:1;"/>
<path d="M10.3907 13.5911C9.93754 13.6317 8.75317 14.4708 8.75317 14.4708C8.75317 14.4708 8.8141 15.8958 8.76879 16.7004C8.72348 17.5051 8.40629 18.8192 8.69848 19.152C8.9516 19.4395 11.0797 19.4942 11.3969 19.1598C11.7157 18.8254 11.4063 17.4442 11.4063 16.5489C11.4063 15.6536 11.3157 14.0004 11.3157 14.0004C11.3157 14.0004 10.9063 13.5458 10.3907 13.5911Z" fill="#865B50" style="fill:#865B50;fill:color(display-p3 0.5255 0.3569 0.3137);fill-opacity:1;"/>
</svg>
