<svg width="21" height="18" viewBox="0 0 21 18" fill="none" xmlns="http://www.w3.org/2000/svg">
<path fill-rule="evenodd" clip-rule="evenodd" d="M1.76118 7.82258C7.12808 5.43202 10.7069 3.85601 12.4975 3.09462C17.6102 0.920584 18.6726 0.542903 19.365 0.530404C19.5173 0.527684 19.8578 0.566283 20.0784 0.749279C20.4056 1.02072 20.4074 1.60992 20.3711 1.99988C20.094 4.97604 18.8952 12.1983 18.2853 15.5316C18.0272 16.9421 17.5191 17.415 17.0272 17.4613C15.9581 17.5619 15.1463 16.7389 14.1108 16.045C12.4905 14.9591 11.5751 14.2832 10.0022 13.2236C8.18458 11.999 9.36289 11.326 10.3987 10.226C10.6699 9.93817 15.3803 5.55782 15.4715 5.16043C15.483 5.11073 15.4935 4.92546 15.3859 4.82767C15.2782 4.72989 15.1194 4.76327 15.0047 4.78988C14.8422 4.8276 12.2537 6.57675 7.23926 10.0373C6.50451 10.5531 5.83901 10.8044 5.24277 10.7912C4.5854 10.7768 3.321 10.4113 2.38101 10.0989C1.22808 9.71576 0.311741 9.51314 0.391566 8.86247C0.433133 8.52346 0.889645 8.17688 1.76118 7.82258Z" fill="#102938" style="fill:#102938;fill:color(display-p3 0.0620 0.1626 0.2183);fill-opacity:1;"/>
</svg>
