<svg width="20" height="20" viewBox="0 0 20 20" fill="none" xmlns="http://www.w3.org/2000/svg">
<path fill-rule="evenodd" clip-rule="evenodd" d="M0.00266246 10.0015C0.00149127 4.47899 4.47506 0.0011766 9.99466 4.80985e-06C11.8658 -0.001831 13.6998 0.521883 15.288 1.51158C19.9733 4.43106 21.4058 10.5979 18.4879 15.2855C15.5699 19.9732 9.40629 21.4066 4.72109 18.4871L0.556867 19.9745C0.51201 19.9907 0.464655 19.9989 0.416949 19.9987C0.365534 19.9987 0.314588 19.9892 0.266608 19.9707C0.0520474 19.8879 -0.0547646 19.6467 0.0280381 19.432L1.58294 15.3956C0.551518 13.7857 0.00305285 11.9137 0.00266246 10.0015ZM13.1009 10.8701C13.7397 11.2034 14.7599 11.7034 14.7599 11.7034C14.9023 11.7736 14.9924 11.9187 14.9923 12.0776V12.9108C14.7828 14.1243 13.7245 15.0067 12.4938 14.994C11.1854 14.994 8.67354 13.4291 7.61831 12.3725C6.56307 11.316 4.99818 8.80277 4.99818 7.49454C4.98553 6.26314 5.86739 5.20431 7.08027 4.99471H7.9131C8.07023 4.99487 8.21386 5.08349 8.28456 5.22387C8.28456 5.22469 8.7884 6.24462 9.11738 6.88458C9.48799 7.60785 8.79258 8.45697 8.39613 8.85776C8.63505 9.48034 8.99578 10.0489 9.45718 10.5301C9.93827 10.9917 10.5065 11.3526 11.1287 11.5918C11.5285 11.1951 12.378 10.4976 13.1009 10.8701Z" fill="#102938" style="fill:#102938;fill:color(display-p3 0.0620 0.1626 0.2183);fill-opacity:1;"/>
</svg>
