<svg width="87" height="18" viewBox="0 0 87 18" fill="none" xmlns="http://www.w3.org/2000/svg">
<g clip-path="url(#clip0_2650_16844)">
<path d="M29.2779 9.04435L35.6005 15.5189L35.4715 15.6364L35.4171 15.688C33.6467 17.2672 31.3269 18.0879 28.9573 17.9734C26.5877 17.8589 24.3578 16.8183 22.7479 15.0757C21.138 13.3332 20.2769 11.0281 20.35 8.65688C20.4231 6.28563 21.4245 4.03794 23.1387 2.39786C24.9011 0.785042 27.2279 -0.0684873 29.6152 0.0221747C32.0024 0.112837 34.2578 1.14039 35.8928 2.88223L29.2779 9.04435Z" fill="#01B94F"/>
<path d="M23.1442 2.39488C24.9063 0.783469 27.2323 -0.0689389 29.6184 0.0222562C32.0044 0.113451 34.2586 1.14091 35.8926 2.88211C35.8926 2.88211 30.6333 7.80608 30.5272 7.89206C30.5272 7.89206 29.3493 9.00124 29.3579 9.01844C29.3665 9.03563 35.5888 15.493 35.5888 15.493L35.4626 15.6133L35.4082 15.6649C31.6937 18.9323 26.0017 18.7832 22.6397 15.149C21.0252 13.3861 20.1724 11.0568 20.2669 8.66813C20.3613 6.27947 21.3955 4.0248 23.1442 2.39488V2.39488Z" fill="url(#paint0_radial_2650_16844)"/>
<path d="M23.148 2.38992C24.9115 0.780636 27.2376 -0.0698338 29.6232 0.0224172C32.0089 0.114668 34.2624 1.14223 35.8964 2.88289C35.8964 2.88289 30.7775 7.69794 30.5683 7.86704C30.5683 7.86704 29.4218 8.96189 29.4419 8.99628C29.4849 9.09946 35.5811 15.4651 35.5811 15.4651L35.455 15.5854L35.4005 15.637C31.6947 18.8987 25.9997 18.7382 22.6493 15.1154C21.0372 13.3573 20.185 11.0335 20.2784 8.64998C20.3718 6.26649 21.4032 4.01646 23.148 2.38992V2.38992Z" fill="url(#paint1_radial_2650_16844)"/>
<path d="M23.1519 2.38578C24.9155 0.77861 27.2405 -0.0702726 29.6248 0.0225024C32.0091 0.115278 34.2611 1.14226 35.8945 2.88161C35.8945 2.88161 30.9219 7.58489 30.6009 7.83997C30.6009 7.83997 29.4945 8.91762 29.5146 8.96921C29.5805 9.12398 35.5678 15.438 35.5678 15.438L35.4388 15.5584L35.3844 15.6071C31.69 18.8601 25.9979 18.6939 22.6532 15.0797C21.0437 13.3266 20.1928 11.0081 20.2863 8.62998C20.3797 6.25189 21.4098 4.00726 23.1519 2.38578V2.38578Z" fill="url(#paint2_radial_2650_16844)"/>
<path d="M23.1554 2.38305C24.9193 0.777119 27.2439 -0.0707202 29.6275 0.0225852C32.0111 0.115891 34.2623 1.14286 35.8952 2.88175C35.8952 2.88175 31.0659 7.46752 30.6388 7.81432C30.6388 7.81432 29.5669 8.87764 29.5955 8.94643C29.6815 9.15279 35.557 15.4124 35.557 15.4124L35.4309 15.5299C35.4309 15.5299 35.3765 15.5786 35.3765 15.5815C31.6907 18.823 25.9986 18.6453 22.6624 15.0455C21.0555 13.2977 20.2055 10.9851 20.2978 8.61262C20.3902 6.24018 21.4175 4.00065 23.1554 2.38305V2.38305Z" fill="url(#paint3_radial_2650_16844)"/>
<path d="M23.1608 2.3776C24.925 0.774138 27.2489 -0.0716133 29.6311 0.0227523C32.0133 0.117118 34.2629 1.14404 35.8948 2.88203C35.8948 2.88203 31.2116 7.36461 30.6757 7.78879C30.6757 7.78879 29.6382 8.83492 29.6725 8.9209C29.7815 9.17885 35.548 15.384 35.5452 15.3868L35.4191 15.5043L35.3646 15.5559C31.6874 18.7832 25.9982 18.6026 22.6707 15.0114C21.0665 13.268 20.2176 10.9606 20.3095 8.59338C20.4013 6.22611 21.4264 3.99141 23.1608 2.3776V2.3776Z" fill="url(#paint4_radial_2650_16844)"/>
<path d="M23.1639 2.37487C24.9284 0.77265 27.2518 -0.0720591 29.6334 0.0228366C32.0149 0.117732 34.2637 1.14463 35.8951 2.88217C35.8951 2.88217 31.3552 7.25584 30.7132 7.75454C30.7132 7.75454 29.7101 8.78348 29.7531 8.88665C29.8821 9.19619 35.5369 15.3468 35.5369 15.3468L35.4108 15.493L35.3563 15.5417C31.6848 18.746 25.9985 18.5597 22.6767 14.9771C21.0755 13.2388 20.2279 10.9371 20.3192 8.57543C20.4105 6.21379 21.4333 3.98442 23.1639 2.37487V2.37487Z" fill="url(#paint5_radial_2650_16844)"/>
<path d="M23.1702 2.37215C24.9349 0.771162 27.2579 -0.0725041 29.6388 0.0229215C32.0196 0.118347 34.2676 1.14523 35.8985 2.88231C35.8985 2.88231 31.502 7.14707 30.7539 7.75468C30.7539 7.75468 29.7823 8.76642 29.831 8.88679C29.9944 9.23359 35.5288 15.3326 35.526 15.3326L35.3998 15.4502L35.3454 15.5017C31.6854 18.7089 25.999 18.514 22.6858 14.9429C21.0869 13.2098 20.24 10.9137 20.3308 8.55743C20.4216 6.2012 21.4426 3.97702 23.1702 2.37215V2.37215Z" fill="url(#paint6_radial_2650_16844)"/>
<path d="M23.1727 2.3642C24.938 0.764814 27.2608 -0.0773087 29.6409 0.0191833C32.0211 0.115675 34.2681 1.14306 35.8981 2.8801C35.8981 2.8801 31.6449 7.03308 30.7908 7.71234C30.7908 7.71234 29.8535 8.70975 29.9109 8.85878C30.0828 9.2715 35.517 15.3161 35.5141 15.3161C35.5112 15.3161 35.3966 15.4279 35.388 15.4336L35.3335 15.4823C31.6821 18.6694 25.9958 18.4688 22.6912 14.9177C21.0907 13.189 20.2424 10.8954 20.3327 8.54126C20.423 6.18716 21.4445 3.96529 23.1727 2.3642V2.3642Z" fill="url(#paint7_radial_2650_16844)"/>
<path d="M23.1787 2.36399C24.944 0.766705 27.2658 -0.0738359 29.6446 0.0231794C32.0233 0.120195 34.269 1.14701 35.8984 2.88275C35.8984 2.88275 31.7913 6.92682 30.8283 7.6892C30.8283 7.6892 29.9255 8.66941 29.9914 8.83564C30.1834 9.29995 35.5058 15.2901 35.5058 15.293L35.3796 15.4105L35.3252 15.4592C31.6824 18.6463 25.996 18.4371 22.7144 14.886C21.1158 13.1637 20.2667 10.8771 20.3537 8.52884C20.4408 6.18064 21.4569 3.96315 23.1787 2.36399V2.36399Z" fill="url(#paint8_radial_2650_16844)"/>
<path d="M23.1818 2.36127C24.9474 0.765222 27.2688 -0.0742787 29.6469 0.0232664C32.0249 0.120811 34.2698 1.14761 35.8987 2.8829C35.8987 2.8829 31.9349 6.81519 30.8544 7.66356C30.8544 7.66356 29.9945 8.62943 30.0576 8.81C30.2812 9.3173 35.4975 15.253 35.4946 15.2559L35.3685 15.3705C35.3685 15.3705 35.3198 15.4164 35.314 15.4221C31.6798 18.5977 25.9963 18.3799 22.7032 14.8489C21.9146 13.9975 21.3015 12.9992 20.8988 11.9108C20.496 10.8225 20.3116 9.66553 20.3561 8.50593C20.4005 7.34634 20.673 6.20686 21.1578 5.15255C21.6426 4.09824 22.3304 3.14976 23.1818 2.36127V2.36127Z" fill="url(#paint9_radial_2650_16844)"/>
<path d="M23.1867 2.35193C24.9527 0.758352 27.2733 -0.0790686 29.65 0.0195358C32.0267 0.11814 34.2699 1.1449 35.8979 2.8793C35.8979 2.8793 32.0802 6.70267 30.9022 7.63416C30.9022 7.63416 30.0682 8.5857 30.1485 8.7806C30.3835 9.35382 35.4851 15.2322 35.4851 15.2351L35.359 15.3497L35.3046 15.3984C31.6761 18.5569 25.9955 18.3333 22.7138 14.8051C21.1254 13.0909 20.2829 10.8159 20.3716 8.48061C20.4603 6.14528 21.4729 3.94078 23.1867 2.35193V2.35193Z" fill="url(#paint10_radial_2650_16844)"/>
<path d="M23.1892 2.34948C24.9559 0.756951 27.2766 -0.079508 29.653 0.0196233C32.0295 0.118755 34.2724 1.14558 35.9004 2.8797C35.9004 2.8797 32.2232 6.60564 30.9392 7.61164C30.9392 7.61164 30.1424 8.54312 30.2255 8.75808C30.4835 9.36856 35.4762 15.2039 35.4733 15.2039L35.3472 15.3214L35.2928 15.3702C31.6757 18.5229 25.9951 18.2936 22.7221 14.7769C21.936 13.9306 21.3244 12.9377 20.9224 11.8548C20.5204 10.772 20.3359 9.62055 20.3792 8.46633C20.4226 7.31211 20.6932 6.17776 21.1753 5.12817C21.6575 4.07859 22.3418 3.13435 23.1892 2.34948V2.34948Z" fill="url(#paint11_radial_2650_16844)"/>
<path d="M23.1955 2.34927C24.9622 0.75885 27.2818 -0.0760318 29.6569 0.0236223C32.032 0.123276 34.2735 1.14953 35.9009 2.88237C35.9009 2.88237 32.3698 6.48506 30.9769 7.5885C30.9769 7.5885 30.2145 8.50566 30.3063 8.73494C30.5929 9.40561 35.4652 15.1808 35.4652 15.1837L35.3391 15.3012C35.3391 15.3012 35.2904 15.3442 35.2875 15.3499C31.6763 18.5026 25.9985 18.2533 22.7311 14.748C19.4638 11.2428 19.6272 5.5851 23.1955 2.34927Z" fill="url(#paint12_radial_2650_16844)"/>
<path d="M23.1995 2.34134C24.9668 0.752515 27.2862 -0.0808271 29.6606 0.0198924C32.035 0.120612 34.2755 1.14738 35.902 2.88017C35.902 2.88017 32.5143 6.36821 31.0296 7.55478C31.0296 7.55478 30.2988 8.45473 30.3991 8.70122C30.7 9.42347 35.4664 15.1442 35.4664 15.1471L35.3403 15.2617L35.2858 15.3104C31.6716 18.4431 25.9824 18.1995 22.738 14.7028C19.4936 11.2062 19.6398 5.56857 23.1995 2.34134Z" fill="url(#paint13_radial_2650_16844)"/>
<path d="M23.2049 2.34114C24.9724 0.754418 27.2907 -0.0773489 29.6638 0.0238931C32.0368 0.125135 34.2759 1.15134 35.9018 2.88284C35.9018 2.88284 32.6602 6.26483 31.0552 7.53738C31.0552 7.53738 30.3587 8.42301 30.4648 8.68382C30.7886 9.4548 35.4403 15.1211 35.4403 15.1239L35.3142 15.2386L35.2598 15.2873C31.6714 18.4085 25.9822 18.1563 22.7435 14.6711C19.5048 11.1859 19.651 5.55691 23.2049 2.34114Z" fill="url(#paint14_radial_2650_16844)"/>
<path d="M23.2062 2.33844C24.9739 0.752943 27.2918 -0.0777868 29.6642 0.0239844C32.0365 0.125756 34.2748 1.15194 35.9002 2.883C35.9002 2.883 32.8019 6.15608 31.0909 7.51175C31.0909 7.51175 30.4288 8.37158 30.5435 8.65819C30.8874 9.47502 35.4388 15.0954 35.4388 15.0983L35.3155 15.213L35.2611 15.2617C31.667 18.3599 25.9806 18.1134 22.7505 14.634C19.5204 11.1546 19.658 5.5456 23.2062 2.33844Z" fill="url(#paint15_radial_2650_16844)"/>
<path d="M23.2129 2.33215C24.9817 0.749632 27.2992 -0.078647 29.6704 0.0241703C32.0416 0.126988 34.2787 1.15275 35.904 2.88244C35.904 2.88244 32.949 6.03515 31.1405 7.4854C31.1405 7.4854 30.5128 8.34523 30.6332 8.63184C30.9886 9.50887 35.4396 15.0662 35.4224 15.0691L35.2963 15.1838C35.2796 15.2015 35.2613 15.2178 35.2419 15.2325C31.6679 18.3336 25.9815 18.0728 22.76 14.6019C19.5385 11.1311 19.6761 5.53072 23.2129 2.33215Z" fill="url(#paint16_radial_2650_16844)"/>
<path d="M23.216 2.32648C24.987 0.746342 27.3058 -0.0783159 29.6769 0.0288006C32.0479 0.135917 34.2829 1.16631 35.9042 2.8997C35.9042 2.8997 33.0926 5.93204 31.1666 7.4654C31.1666 7.4654 30.5733 8.3023 30.7022 8.61184C31.0892 9.54332 35.4141 15.0491 35.4112 15.052C35.4084 15.0548 35.3052 15.1523 35.2851 15.1666L35.2335 15.2153C31.6653 18.2935 25.9818 18.0184 22.766 14.5647C19.5503 11.1111 19.6764 5.51359 23.216 2.32648Z" fill="url(#paint17_radial_2650_16844)"/>
<path d="M23.2217 2.32483C24.9921 0.745736 27.3098 -0.0783062 29.6797 0.028806C32.0495 0.135918 34.2835 1.16569 35.9042 2.89805C35.9042 2.89805 33.2387 5.83007 31.2038 7.44369C31.2038 7.44369 30.6449 8.26339 30.7796 8.59013C31.1895 9.5732 35.4055 15.0245 35.3998 15.0274L35.2765 15.142L35.2221 15.1908C31.6624 18.2575 25.9818 17.9766 22.7746 14.5315C19.5674 11.0865 19.6907 5.50047 23.2217 2.32483Z" fill="url(#paint18_radial_2650_16844)"/>
<path d="M23.2246 2.30668C24.9951 0.729144 27.3121 -0.0939072 29.6811 0.0131881C32.05 0.120283 34.2833 1.14904 35.9042 2.8799C35.9042 2.8799 33.3821 5.70301 31.244 7.39974C31.244 7.39974 30.7166 8.20225 30.8599 8.54619C31.2898 9.58085 35.3941 14.9806 35.3912 14.9834L35.2651 15.0981L35.2107 15.144C31.6624 18.2193 25.9818 17.9298 22.7804 14.4991C19.5789 11.0684 19.7022 5.48519 23.2246 2.30668Z" fill="url(#paint19_radial_2650_16844)"/>
<path d="M23.2304 2.30894C25.0003 0.732445 27.3162 -0.0899912 29.684 0.0170998C32.0518 0.124191 34.284 1.15233 35.9043 2.88216C34.4794 4.49781 32.934 6.00301 31.2813 7.3848C31.2813 7.3848 30.7883 8.17298 30.9402 8.53124C31.3902 9.61749 35.3827 14.9599 35.3798 14.9656L35.2566 15.0774L35.2021 15.1261C31.6596 18.1843 25.9819 17.8891 22.7891 14.4669C19.5962 11.0448 19.7109 5.46165 23.2304 2.30894Z" fill="url(#paint20_radial_2650_16844)"/>
<path d="M23.2334 2.3078C25.0036 0.732002 27.3193 -0.0899783 29.6869 0.0171027C32.0544 0.124184 34.2865 1.15185 35.9073 2.88102C34.5023 4.49227 32.9687 5.98661 31.3215 7.34927C31.3215 7.34927 30.8658 8.12025 31.0349 8.49571C31.5078 9.64215 35.3914 14.9244 35.3856 14.9272L35.2624 15.0419L35.2079 15.0906C31.6597 18.143 25.982 17.8421 22.7949 14.4314C19.6077 11.0207 19.7224 5.46051 23.2334 2.3078Z" fill="url(#paint21_radial_2650_16844)"/>
<path d="M23.2392 2.3078C25.0094 0.734422 27.3238 -0.0860368 29.6897 0.0210203C32.0557 0.128077 34.2865 1.1542 35.9074 2.88102C34.5245 4.49342 33.0014 5.98006 31.356 7.32348C31.356 7.32348 30.9347 8.08013 31.098 8.46992C31.591 9.67082 35.3628 14.9187 35.3599 14.9187C35.3571 14.9187 35.2596 15.0132 35.2338 15.0333L35.1822 15.0792C31.6569 18.1058 25.982 17.7848 22.8035 14.397C19.625 11.0093 19.7311 5.46051 23.2392 2.3078Z" fill="url(#paint22_radial_2650_16844)"/>
<path d="M23.2414 2.30641C25.0115 0.733899 27.3252 -0.0860255 29.6905 0.0210244C32.0557 0.128074 34.2859 1.15365 35.9067 2.87963C34.5462 4.49496 33.0347 5.97676 31.3926 7.30489C31.3926 7.30489 31.0057 8.04435 31.1748 8.45133C31.6936 9.69236 35.3536 14.8771 35.3478 14.88L35.2246 14.9918L35.1701 15.0405C31.6534 18.07 25.9814 17.7518 22.8115 14.3612C19.6416 10.9706 19.7419 5.43046 23.2414 2.30641Z" fill="url(#paint23_radial_2650_16844)"/>
<path d="M23.2436 2.30893C25.0135 0.737283 27.3266 -0.0821079 29.6912 0.0249349C32.0558 0.131978 34.2854 1.15701 35.906 2.88215C34.5688 4.50031 33.0675 5.97562 31.4263 7.28448C31.4263 7.28448 31.0738 8.00674 31.2515 8.43092C31.7903 9.72353 35.3385 14.851 35.3357 14.8567L35.2096 14.9685L35.1551 15.0172C31.6527 18.0324 25.9807 17.7085 22.828 14.3294C19.6753 10.9502 19.7527 5.41865 23.2436 2.30893Z" fill="url(#paint24_radial_2650_16844)"/>
<path d="M23.2495 2.30615C25.0191 0.736239 27.331 -0.0820854 29.6941 0.0249433C32.0573 0.131972 34.2858 1.15592 35.9062 2.87937C34.594 4.49809 33.106 5.96594 31.4695 7.25591C31.4695 7.25591 31.1485 7.96383 31.3348 8.40235C31.908 9.74655 35.3473 14.8224 35.3273 14.8281L35.204 14.9399L35.1496 14.9858C31.65 17.9923 25.9809 17.6598 22.8282 14.2922C19.6755 10.9245 19.7615 5.40154 23.2495 2.30615Z" fill="url(#paint25_radial_2650_16844)"/>
<path d="M23.2538 2.30755C25.0235 0.739186 27.3346 -0.0781552 29.6969 0.0288567C32.0592 0.135869 34.2869 1.15882 35.9076 2.88077C34.6218 4.503 33.1446 5.96384 31.5082 7.23152C31.5082 7.23152 31.2215 7.92225 31.4136 8.37796C31.9868 9.77375 35.3229 14.7952 35.3172 14.798C35.3115 14.8009 35.2226 14.8869 35.194 14.9098L35.1395 14.9585C31.6515 17.9565 25.9823 17.6183 22.8296 14.2592C19.6769 10.9001 19.7743 5.38861 23.2538 2.30755Z" fill="url(#paint26_radial_2650_16844)"/>
<path d="M23.2597 2.29055C25.0315 0.725213 27.3432 -0.0886013 29.7048 0.0216155C32.0665 0.131832 34.2924 1.15742 35.9106 2.88096C35.9106 2.88096 34.5407 4.82991 31.5456 7.20591C31.5456 7.20591 31.2934 7.88231 31.494 8.35235C32.0959 9.7854 35.3116 14.7695 35.3088 14.7724L35.1827 14.8842L35.1311 14.9329C31.6488 17.9194 25.9825 17.5726 22.8298 14.225C19.6771 10.8774 19.7831 5.37447 23.2597 2.29055Z" fill="url(#paint27_radial_2650_16844)"/>
<path d="M23.2612 2.28544C25.0338 0.722382 27.3452 -0.0894542 29.706 0.021816C32.0667 0.133086 34.2915 1.15873 35.9093 2.88159C35.9093 2.88159 34.6855 4.71017 31.5815 7.18074C31.4658 7.55414 31.4658 7.95379 31.5815 8.32719C32.2063 9.82616 35.3074 14.7387 35.3074 14.7444L35.1842 14.8562L35.1297 14.902C31.6445 17.8828 25.9811 17.5302 22.8485 14.1941C19.7158 10.858 19.7932 5.36364 23.2612 2.28544Z" fill="url(#paint28_radial_2650_16844)"/>
<path d="M23.2667 2.28362C25.0387 0.721279 27.3494 -0.0898953 29.7092 0.0219159C32.069 0.133727 34.2926 1.15974 35.909 2.88264C35.909 2.88264 34.8285 4.6023 31.6099 7.14453C31.5086 7.5216 31.5196 7.92003 31.6414 8.29097C32.2863 9.86159 35.2899 14.7225 35.2842 14.7282L35.161 14.84L35.1094 14.8859C31.6443 17.8466 25.9809 17.4998 22.8539 14.1607C19.727 10.8217 19.8044 5.35035 23.2667 2.28362Z" fill="url(#paint29_radial_2650_16844)"/>
<path d="M23.2713 2.28094C25.0436 0.719823 27.3538 -0.0903209 29.7129 0.0220182C32.0721 0.134357 34.2949 1.16036 35.9108 2.88282C35.9108 2.88282 34.9764 4.50217 31.6575 7.13325C31.5777 7.51487 31.6024 7.91097 31.7292 8.27969C32.397 9.88183 35.2831 14.6883 35.2774 14.694L35.1541 14.8029L35.0997 14.8516C31.6432 17.8095 25.9826 17.4397 22.8643 14.1265C19.6973 10.7675 19.8148 5.3362 23.2713 2.28094Z" fill="url(#paint30_radial_2650_16844)"/>
<path d="M23.2757 2.27447C25.0487 0.716482 27.358 -0.0911567 29.7155 0.0222277C32.073 0.135612 34.2942 1.16114 35.9095 2.88208C35.9095 2.88208 35.1184 4.38105 31.6934 7.09525C31.6343 7.48095 31.6738 7.87533 31.8081 8.24169C32.4959 9.89543 35.2703 14.6503 35.2646 14.6532L35.1413 14.7649L35.0869 14.8108C31.6476 17.7485 25.987 17.3903 22.8687 14.0713C19.7504 10.7524 19.8249 5.32113 23.2757 2.27447Z" fill="url(#paint31_radial_2650_16844)"/>
<path d="M23.279 2.27206C25.0527 0.715113 27.362 -0.091579 29.7194 0.0223302C32.0767 0.13624 34.2975 1.16183 35.9128 2.88254C35.9128 2.88254 35.265 4.26973 31.734 7.06991C31.6953 7.4589 31.7483 7.85154 31.8888 8.21635C32.5967 9.94461 35.2593 14.6335 35.2536 14.6479L35.1303 14.7597L35.0787 14.8055C31.6394 17.7318 25.9817 17.3506 22.8778 14.0603C19.7251 10.7185 19.8368 5.30726 23.279 2.27206Z" fill="url(#paint32_radial_2650_16844)"/>
<path d="M23.2844 2.26912C25.0578 0.713579 27.3663 -0.0920036 29.7224 0.0224362C32.0786 0.136876 34.2981 1.16238 35.9124 2.88247C35.9124 2.88247 35.408 4.17221 31.7709 7.05551C31.7547 7.4471 31.8211 7.83772 31.9658 8.20195C32.6967 9.97033 35.2504 14.6163 35.2446 14.6335L35.1214 14.7424L35.0669 14.7883C31.6362 17.6945 25.9814 17.3076 22.8832 14.023C19.739 10.6926 19.8451 5.29286 23.2844 2.26912Z" fill="url(#paint33_radial_2650_16844)"/>
<path d="M23.2878 2.26013C25.062 0.706857 27.3702 -0.0967528 29.7254 0.0187392C32.0807 0.134231 34.2991 1.1598 35.9129 2.87921C35.9129 2.87921 35.5547 4.05718 31.8087 7.02646C31.8149 7.42483 31.8955 7.81853 32.0466 8.18723C32.8004 9.99573 35.2394 14.5872 35.2337 14.593L35.1104 14.7019L35.0588 14.7477C31.6367 17.654 25.9819 17.2584 22.8922 13.9853C19.7539 10.6664 19.857 5.27527 23.2878 2.26013Z" fill="url(#paint34_radial_2650_16844)"/>
<path d="M23.2928 2.25852C25.068 0.711347 27.3741 -0.0871342 29.726 0.0309945C32.0779 0.149123 34.2923 1.17466 35.9036 2.89193C35.9036 2.89193 35.6886 3.94952 31.8366 7.00191C31.8699 7.4016 31.9666 7.79344 32.1232 8.16268C32.8999 10.0256 35.2301 14.5627 35.2243 14.5684L35.1011 14.6773C35.0817 14.691 35.0635 14.7064 35.0466 14.7232C31.6331 17.6179 25.9812 17.211 22.9001 13.9522C19.7675 10.6419 19.8649 5.26506 23.2928 2.25852Z" fill="url(#paint35_radial_2650_16844)"/>
<path d="M23.2965 2.25444C25.0718 0.706943 27.3783 -0.0914861 29.7304 0.0271884C32.0825 0.145863 34.2968 1.17239 35.9074 2.89071C35.9074 2.89071 35.8386 3.83939 31.8776 6.9749C31.9339 7.37503 32.0418 7.76617 32.1986 8.13854C33.0011 10.0445 35.2195 14.5328 35.2138 14.5385L35.0905 14.6475C35.0733 14.6475 35.0533 14.6819 35.0361 14.6933C31.6312 17.5795 25.9821 17.1696 22.9067 13.9166C19.7827 10.6177 19.8773 5.24951 23.2965 2.25444Z" fill="url(#paint36_radial_2650_16844)"/>
<path d="M23.3016 2.24964C25.0783 0.704227 27.3848 -0.092318 29.7365 0.0274046C32.0882 0.147127 34.3019 1.1738 35.9124 2.89165C35.9124 2.89165 35.987 3.74001 31.92 6.95291C32.0032 7.35109 32.1261 7.73995 32.2868 8.11368C33.1037 10.0798 35.2131 14.5079 35.2045 14.5137C35.1959 14.5194 35.1214 14.5911 35.0813 14.6226L35.0297 14.6685C31.6334 17.5489 25.9814 17.1247 22.9147 13.8831C19.7935 10.5929 19.8881 5.23612 23.3016 2.24964Z" fill="url(#paint37_radial_2650_16844)"/>
<path d="M23.3044 2.24818C25.0815 0.702803 27.3886 -0.0931917 29.7406 0.0276117C32.0925 0.148415 34.3059 1.1766 35.9153 2.89592C35.9153 2.89592 36.1331 3.62104 31.9601 6.92852C32.0672 7.32507 32.2013 7.71385 32.3613 8.09216C33.2011 10.0984 35.1988 14.4836 35.193 14.4893L35.0698 14.5982L35.0153 14.6441C31.6305 17.4987 25.9814 17.0803 22.9204 13.853C19.8078 10.5685 19.8967 5.22319 23.3044 2.24818Z" fill="url(#paint38_radial_2650_16844)"/>
<path d="M23.3104 2.24298C25.0878 0.69797 27.3951 -0.0975267 29.7471 0.0238115C32.099 0.14515 34.3122 1.17387 35.9212 2.89359C35.9212 2.89359 36.2766 3.50693 32.0004 6.8918C32.0004 6.8918 32.158 7.3733 32.4446 8.05543C33.3045 10.1248 35.1904 14.4468 35.1846 14.4526L35.0614 14.5615L35.0098 14.6045C31.6278 17.4677 25.9816 17.0349 22.9292 13.8163C19.8223 10.5403 19.9083 5.20653 23.3104 2.24298Z" fill="url(#paint39_radial_2650_16844)"/>
<path d="M35.1694 14.4372C31.8218 17.4466 26.0352 17.0482 22.934 13.7722C19.8329 10.4963 19.916 5.17394 23.3124 2.22759C25.0908 0.683972 27.3984 -0.110087 29.7502 0.0123102C32.1019 0.134707 34.3146 1.16403 35.9232 2.88392C35.9232 2.88392 36.4305 3.38836 32.0425 6.86494C32.0339 6.8764 35.1809 14.4286 35.1694 14.4372Z" fill="url(#paint40_radial_2650_16844)"/>
<path d="M31.909 6.97266C30.5362 8.09903 28.848 9.42604 26.8848 10.9135C28.3432 12.4908 30.0395 13.8301 31.9119 14.8831C33.5198 15.7429 34.778 15.9034 35.3942 15.3589C36.0104 14.8143 35.9359 13.559 35.2194 11.9195C34.371 10.1135 33.255 8.44573 31.909 6.97266V6.97266Z" fill="url(#paint41_linear_2650_16844)"/>
<path d="M32.032 6.86328L31.3441 7.4365C32.6036 8.82102 33.6506 10.3848 34.451 12.0767C35.1532 13.6932 35.136 14.5043 34.9095 14.7078C34.6831 14.9113 33.7058 14.9629 32.1437 14.1346C30.4134 13.1533 28.8485 11.9056 27.5064 10.4373L26.7383 11.0105L26.9188 11.1854C30.1719 14.5473 33.6914 16.4619 35.2391 15.7654C35.285 15.7425 35.3309 15.7195 35.3738 15.6937H35.391C35.4509 15.6566 35.5075 15.6144 35.5601 15.5676C35.6159 15.5172 35.6668 15.4615 35.712 15.4014C36.7238 14.0744 35.1875 10.5004 32.1265 6.99799L32.032 6.86328Z" fill="#84EEB1"/>
</g>
<path d="M45.882 15.9465C44.218 15.9465 42.905 15.342 41.943 14.133C40.981 12.911 40.5 11.1949 40.5 8.98494C40.5 6.82693 40.9745 5.12392 41.9235 3.87591C42.8855 2.62791 44.2635 2.00391 46.0575 2.00391C46.6815 2.00391 47.2405 2.09491 47.7345 2.27691C48.2285 2.44591 48.6315 2.64091 48.9435 2.86191V4.75342C48.5925 4.53242 48.1765 4.32442 47.6955 4.12942C47.2145 3.93441 46.7075 3.83691 46.1745 3.83691C45.0305 3.83691 44.1985 4.25942 43.6785 5.10442C43.1585 5.94942 42.8985 7.24293 42.8985 8.98494C42.8985 10.6749 43.1585 11.9554 43.6785 12.8265C44.1985 13.6845 44.9915 14.1135 46.0575 14.1135C46.6815 14.1135 47.221 14.0225 47.676 13.8405C48.131 13.6455 48.5535 13.405 48.9435 13.119V15.0105C48.6445 15.2185 48.2415 15.4265 47.7345 15.6345C47.2275 15.8425 46.61 15.9465 45.882 15.9465Z" fill="white"/>
<path d="M50.4115 5.94292H58.0556V15.7515H55.7351V7.77593H52.732V15.7515H50.4115V5.94292Z" fill="white"/>
<path d="M59.2292 13.743C59.2292 13.743 59.2747 13.7755 59.3657 13.8405C59.4567 13.8925 59.5867 13.9185 59.7557 13.9185C60.1327 13.9185 60.3797 13.7235 60.4967 13.3335C60.6137 12.9435 60.6917 12.2284 60.7307 11.1884L60.9257 5.94292H67.5753V15.7515H65.2547V7.77593H62.8952L62.7587 11.2859C62.7067 12.911 62.5052 14.094 62.1542 14.835C61.8032 15.576 61.1337 15.9465 60.1457 15.9465C59.8727 15.9465 59.6517 15.914 59.4827 15.849C59.3137 15.784 59.2292 15.7515 59.2292 15.7515V13.743Z" fill="white"/>
<path d="M69.5308 5.94292H71.7928V12.0074L75.3808 5.94292H77.3893V15.7515H75.1273V9.68694L71.5393 15.7515H69.5308V5.94292Z" fill="white"/>
<path d="M86.5335 7.77593H83.8034V15.7515H81.4829V7.77593H78.7529V5.94292H86.5335V7.77593Z" fill="white"/>
<g clip-path="url(#clip1_2650_16844)">
<path fill-rule="evenodd" clip-rule="evenodd" d="M18 0H0V18H18V0ZM12.1487 14.409H10.2684V5.06973H9.42923C7.89081 5.06973 7.08275 5.84671 7.08275 6.99663C7.08275 8.30196 7.64218 8.908 8.79211 9.68498L9.74002 10.3221L7.00506 14.409H4.96937L7.42462 10.7572C6.01052 9.74714 5.21801 8.76815 5.21801 7.10541C5.21801 5.02311 6.66319 3.60901 9.41369 3.60901H12.1487V14.409Z" fill="white"/>
</g>
<defs>
<radialGradient id="paint0_radial_2650_16844" cx="0" cy="0" r="1" gradientUnits="userSpaceOnUse" gradientTransform="translate(31.5615 1.02075) rotate(-2.29061) scale(41.2618 30.5344)">
<stop stop-color="#03BA50"/>
<stop offset="0.8" stop-color="#01B64E"/>
</radialGradient>
<radialGradient id="paint1_radial_2650_16844" cx="0" cy="0" r="1" gradientUnits="userSpaceOnUse" gradientTransform="translate(31.5582 1.0182) rotate(-2.29061) scale(41.1757 30.4707)">
<stop stop-color="#04BC50"/>
<stop offset="0.8" stop-color="#01B34D"/>
</radialGradient>
<radialGradient id="paint2_radial_2650_16844" cx="0" cy="0" r="1" gradientUnits="userSpaceOnUse" gradientTransform="translate(31.5466 1.02467) rotate(-2.29061) scale(41.0897 30.4071)">
<stop stop-color="#06BD51"/>
<stop offset="0.72" stop-color="#02B24C"/>
<stop offset="0.8" stop-color="#01B04B"/>
</radialGradient>
<radialGradient id="paint3_radial_2650_16844" cx="0" cy="0" r="1" gradientUnits="userSpaceOnUse" gradientTransform="translate(31.5318 1.03776) rotate(-2.29061) scale(41.0037 30.3434)">
<stop stop-color="#08BF52"/>
<stop offset="0.56" stop-color="#04B44D"/>
<stop offset="0.8" stop-color="#01AD4A"/>
</radialGradient>
<radialGradient id="paint4_radial_2650_16844" cx="0" cy="0" r="1" gradientUnits="userSpaceOnUse" gradientTransform="translate(31.516 1.05048) rotate(-2.29061) scale(40.9176 30.2797)">
<stop stop-color="#0AC053"/>
<stop offset="0.48" stop-color="#05B54E"/>
<stop offset="0.8" stop-color="#01AA49"/>
</radialGradient>
<radialGradient id="paint5_radial_2650_16844" cx="0" cy="0" r="1" gradientUnits="userSpaceOnUse" gradientTransform="translate(31.4982 1.0816) rotate(-1.71836) scale(40.8144 30.2122)">
<stop stop-color="#0BC253"/>
<stop offset="0.42" stop-color="#07B74E"/>
<stop offset="0.8" stop-color="#01A848"/>
</radialGradient>
<radialGradient id="paint6_radial_2650_16844" cx="0" cy="0" r="1" gradientUnits="userSpaceOnUse" gradientTransform="translate(31.475 1.08957) rotate(-1.71836) scale(40.7284 30.1485)">
<stop stop-color="#0DC354"/>
<stop offset="0.37" stop-color="#08B84F"/>
<stop offset="0.8" stop-color="#01A546"/>
</radialGradient>
<radialGradient id="paint7_radial_2650_16844" cx="0" cy="0" r="1" gradientUnits="userSpaceOnUse" gradientTransform="translate(31.7773 1.09535) rotate(-1.71836) scale(40.6423 30.0727)">
<stop stop-color="#0FC555"/>
<stop offset="0.33" stop-color="#0ABA50"/>
<stop offset="0.8" stop-color="#01A245"/>
</radialGradient>
<radialGradient id="paint8_radial_2650_16844" cx="0" cy="0" r="1" gradientUnits="userSpaceOnUse" gradientTransform="translate(31.7474 1.11253) rotate(-1.70136) scale(40.9615 30.0091)">
<stop stop-color="#11C656"/>
<stop offset="0.3" stop-color="#0CBB51"/>
<stop offset="0.8" stop-color="#019F44"/>
</radialGradient>
<radialGradient id="paint9_radial_2650_16844" cx="0" cy="0" r="1" gradientUnits="userSpaceOnUse" gradientTransform="translate(31.7376 1.12738) rotate(-1.70135) scale(40.8747 29.9454)">
<stop stop-color="#12C856"/>
<stop offset="0.28" stop-color="#0EBD51"/>
<stop offset="0.77" stop-color="#029E44"/>
<stop offset="0.8" stop-color="#019C43"/>
</radialGradient>
<radialGradient id="paint10_radial_2650_16844" cx="0" cy="0" r="1" gradientUnits="userSpaceOnUse" gradientTransform="translate(31.7267 1.14364) rotate(-1.70136) scale(40.7849 29.8796)">
<stop stop-color="#14C957"/>
<stop offset="0.26" stop-color="#0FBE52"/>
<stop offset="0.72" stop-color="#049F44"/>
<stop offset="0.8" stop-color="#019941"/>
</radialGradient>
<radialGradient id="paint11_radial_2650_16844" cx="0" cy="0" r="1" gradientUnits="userSpaceOnUse" gradientTransform="translate(31.7077 1.16841) rotate(-1.70136) scale(40.698 29.816)">
<stop stop-color="#16CB58"/>
<stop offset="0.24" stop-color="#11C053"/>
<stop offset="0.66" stop-color="#06A145"/>
<stop offset="0.8" stop-color="#019640"/>
</radialGradient>
<radialGradient id="paint12_radial_2650_16844" cx="0" cy="0" r="1" gradientUnits="userSpaceOnUse" gradientTransform="translate(31.6868 1.19764) rotate(-1.70135) scale(40.6112 29.7523)">
<stop stop-color="#18CC59"/>
<stop offset="0.23" stop-color="#13C154"/>
<stop offset="0.62" stop-color="#07A246"/>
<stop offset="0.8" stop-color="#01933F"/>
</radialGradient>
<radialGradient id="paint13_radial_2650_16844" cx="0" cy="0" r="1" gradientUnits="userSpaceOnUse" gradientTransform="translate(31.6664 1.22717) rotate(-1.70136) scale(40.5213 29.6866)">
<stop stop-color="#19CD59"/>
<stop offset="0.21" stop-color="#15C254"/>
<stop offset="0.59" stop-color="#09A347"/>
<stop offset="0.8" stop-color="#01903E"/>
</radialGradient>
<radialGradient id="paint14_radial_2650_16844" cx="0" cy="0" r="1" gradientUnits="userSpaceOnUse" gradientTransform="translate(31.639 1.26386) rotate(-1.70135) scale(40.4345 29.6229)">
<stop stop-color="#1BCF5A"/>
<stop offset="0.2" stop-color="#17C455"/>
<stop offset="0.56" stop-color="#0BA547"/>
<stop offset="0.8" stop-color="#018D3C"/>
</radialGradient>
<radialGradient id="paint15_radial_2650_16844" cx="0" cy="0" r="1" gradientUnits="userSpaceOnUse" gradientTransform="translate(31.6074 1.13949) rotate(-1.13442) scale(40.3377 29.5586)">
<stop stop-color="#1DD05B"/>
<stop offset="0.19" stop-color="#18C556"/>
<stop offset="0.54" stop-color="#0CA648"/>
<stop offset="0.8" stop-color="#018B3B"/>
</radialGradient>
<radialGradient id="paint16_radial_2650_16844" cx="0" cy="0" r="1" gradientUnits="userSpaceOnUse" gradientTransform="translate(31.5754 1.16479) rotate(-1.13442) scale(40.2479 29.4928)">
<stop stop-color="#1ED25B"/>
<stop offset="0.18" stop-color="#1AC756"/>
<stop offset="0.51" stop-color="#0EA848"/>
<stop offset="0.8" stop-color="#01883A"/>
</radialGradient>
<radialGradient id="paint17_radial_2650_16844" cx="0" cy="0" r="1" gradientUnits="userSpaceOnUse" gradientTransform="translate(31.5428 1.18715) rotate(-1.13442) scale(40.1611 29.4292)">
<stop stop-color="#20D35C"/>
<stop offset="0.18" stop-color="#1BC857"/>
<stop offset="0.49" stop-color="#0FA949"/>
<stop offset="0.8" stop-color="#018539"/>
</radialGradient>
<radialGradient id="paint18_radial_2650_16844" cx="0" cy="0" r="1" gradientUnits="userSpaceOnUse" gradientTransform="translate(31.5043 1.22368) rotate(-1.13442) scale(40.0742 29.3655)">
<stop stop-color="#22D55D"/>
<stop offset="0.17" stop-color="#1DCA58"/>
<stop offset="0.47" stop-color="#11AB4A"/>
<stop offset="0.8" stop-color="#018237"/>
</radialGradient>
<radialGradient id="paint19_radial_2650_16844" cx="0" cy="0" r="1" gradientUnits="userSpaceOnUse" gradientTransform="translate(31.46 1.25528) rotate(-1.13442) scale(39.9845 29.2998)">
<stop stop-color="#24D65E"/>
<stop offset="0.16" stop-color="#1FCB59"/>
<stop offset="0.45" stop-color="#13AC4B"/>
<stop offset="0.8" stop-color="#017F36"/>
</radialGradient>
<radialGradient id="paint20_radial_2650_16844" cx="0" cy="0" r="1" gradientUnits="userSpaceOnUse" gradientTransform="translate(31.4129 1.29732) rotate(-1.13442) scale(39.8976 29.2361)">
<stop stop-color="#25D85E"/>
<stop offset="0.15" stop-color="#20CD59"/>
<stop offset="0.43" stop-color="#14AE4B"/>
<stop offset="0.79" stop-color="#017D36"/>
<stop offset="0.8" stop-color="#007C35"/>
</radialGradient>
<radialGradient id="paint21_radial_2650_16844" cx="0" cy="0" r="1" gradientUnits="userSpaceOnUse" gradientTransform="translate(32.2805 1.34107) rotate(-1.13442) scale(39.8108 29.1647)">
<stop stop-color="#27D95F"/>
<stop offset="0.15" stop-color="#22CE5A"/>
<stop offset="0.42" stop-color="#16AF4C"/>
<stop offset="0.77" stop-color="#027E36"/>
<stop offset="0.8" stop-color="#007934"/>
</radialGradient>
<radialGradient id="paint22_radial_2650_16844" cx="0" cy="0" r="1" gradientUnits="userSpaceOnUse" gradientTransform="translate(31.9841 1.38738) rotate(-1.1233) scale(40.1142 29.099)">
<stop stop-color="#29DB60"/>
<stop offset="0.14" stop-color="#24D05B"/>
<stop offset="0.4" stop-color="#18B14D"/>
<stop offset="0.74" stop-color="#048037"/>
<stop offset="0.8" stop-color="#007632"/>
</radialGradient>
<radialGradient id="paint23_radial_2650_16844" cx="0" cy="0" r="1" gradientUnits="userSpaceOnUse" gradientTransform="translate(31.9484 1.43747) rotate(-1.1233) scale(40.0264 29.0353)">
<stop stop-color="#2BDC61"/>
<stop offset="0.14" stop-color="#26D15C"/>
<stop offset="0.39" stop-color="#1AB24E"/>
<stop offset="0.71" stop-color="#068138"/>
<stop offset="0.8" stop-color="#007331"/>
</radialGradient>
<radialGradient id="paint24_radial_2650_16844" cx="0" cy="0" r="1" gradientUnits="userSpaceOnUse" gradientTransform="translate(31.9127 1.49651) rotate(-1.1233) scale(39.9358 28.9696)">
<stop stop-color="#2CDE61"/>
<stop offset="0.13" stop-color="#27D35C"/>
<stop offset="0.37" stop-color="#1BB44E"/>
<stop offset="0.69" stop-color="#088339"/>
<stop offset="0.8" stop-color="#007030"/>
</radialGradient>
<radialGradient id="paint25_radial_2650_16844" cx="0" cy="0" r="1" gradientUnits="userSpaceOnUse" gradientTransform="translate(31.8749 1.20678) rotate(-0.561705) scale(39.8423 28.9063)">
<stop stop-color="#2EDF62"/>
<stop offset="0.13" stop-color="#29D45D"/>
<stop offset="0.37" stop-color="#1DB54F"/>
<stop offset="0.67" stop-color="#098439"/>
<stop offset="0.8" stop-color="#006E2F"/>
</radialGradient>
<radialGradient id="paint26_radial_2650_16844" cx="0" cy="0" r="1" gradientUnits="userSpaceOnUse" gradientTransform="translate(31.8325 1.25303) rotate(-0.561705) scale(39.7546 28.8426)">
<stop stop-color="#30E163"/>
<stop offset="0.13" stop-color="#2BD65E"/>
<stop offset="0.35" stop-color="#1FB750"/>
<stop offset="0.65" stop-color="#0B8639"/>
<stop offset="0.8" stop-color="#006B2D"/>
</radialGradient>
<radialGradient id="paint27_radial_2650_16844" cx="0" cy="0" r="1" gradientUnits="userSpaceOnUse" gradientTransform="translate(31.7888 1.30309) rotate(-0.561706) scale(39.6639 28.7769)">
<stop stop-color="#31E263"/>
<stop offset="0.12" stop-color="#2CD75E"/>
<stop offset="0.34" stop-color="#20B850"/>
<stop offset="0.63" stop-color="#0D873A"/>
<stop offset="0.8" stop-color="#00682C"/>
</radialGradient>
<radialGradient id="paint28_radial_2650_16844" cx="0" cy="0" r="1" gradientUnits="userSpaceOnUse" gradientTransform="translate(31.7378 1.35577) rotate(-0.561706) scale(39.5763 28.7132)">
<stop stop-color="#33E364"/>
<stop offset="0.12" stop-color="#2ED85F"/>
<stop offset="0.34" stop-color="#22B951"/>
<stop offset="0.62" stop-color="#0E883B"/>
<stop offset="0.8" stop-color="#00652B"/>
</radialGradient>
<radialGradient id="paint29_radial_2650_16844" cx="0" cy="0" r="1" gradientUnits="userSpaceOnUse" gradientTransform="translate(31.6849 1.41316) rotate(-0.561705) scale(39.4856 28.6475)">
<stop stop-color="#35E565"/>
<stop offset="0.12" stop-color="#30DA60"/>
<stop offset="0.33" stop-color="#24BB52"/>
<stop offset="0.6" stop-color="#108A3C"/>
<stop offset="0.8" stop-color="#00622A"/>
</radialGradient>
<radialGradient id="paint30_radial_2650_16844" cx="0" cy="0" r="1" gradientUnits="userSpaceOnUse" gradientTransform="translate(31.6341 1.47184) rotate(-0.561705) scale(39.3979 28.5838)">
<stop stop-color="#37E666"/>
<stop offset="0.11" stop-color="#32DB61"/>
<stop offset="0.32" stop-color="#26BC53"/>
<stop offset="0.59" stop-color="#128B3C"/>
<stop offset="0.8" stop-color="#005F28"/>
</radialGradient>
<radialGradient id="paint31_radial_2650_16844" cx="0" cy="0" r="1" gradientUnits="userSpaceOnUse" gradientTransform="translate(31.5743 1.53467) rotate(-0.561705) scale(39.3073 28.5181)">
<stop stop-color="#38E866"/>
<stop offset="0.11" stop-color="#33DD61"/>
<stop offset="0.31" stop-color="#27BE53"/>
<stop offset="0.57" stop-color="#148D3D"/>
<stop offset="0.8" stop-color="#005C27"/>
</radialGradient>
<radialGradient id="paint32_radial_2650_16844" cx="0" cy="0" r="1" gradientUnits="userSpaceOnUse" gradientTransform="translate(31.5133 1.60297) rotate(-0.561706) scale(39.2196 28.4545)">
<stop stop-color="#3AE967"/>
<stop offset="0.11" stop-color="#35DE62"/>
<stop offset="0.3" stop-color="#29BF54"/>
<stop offset="0.56" stop-color="#158E3E"/>
<stop offset="0.8" stop-color="#005926"/>
</radialGradient>
<radialGradient id="paint33_radial_2650_16844" cx="0" cy="0" r="1" gradientUnits="userSpaceOnUse" gradientTransform="translate(31.4516 1.67291) rotate(-0.561705) scale(39.1319 28.3908)">
<stop stop-color="#3CEB68"/>
<stop offset="0.11" stop-color="#37E063"/>
<stop offset="0.29" stop-color="#2BC155"/>
<stop offset="0.54" stop-color="#17903F"/>
<stop offset="0.8" stop-color="#005625"/>
</radialGradient>
<radialGradient id="paint34_radial_2650_16844" cx="0" cy="0" r="1" gradientUnits="userSpaceOnUse" gradientTransform="translate(31.3819 1.74475) rotate(-0.561705) scale(39.0413 28.3251)">
<stop stop-color="#3EEC69"/>
<stop offset="0.1" stop-color="#39E164"/>
<stop offset="0.29" stop-color="#2DC256"/>
<stop offset="0.53" stop-color="#19913F"/>
<stop offset="0.8" stop-color="#005323"/>
</radialGradient>
<radialGradient id="paint35_radial_2650_16844" cx="0" cy="0" r="1" gradientUnits="userSpaceOnUse" gradientTransform="translate(31.311 1.30004) scale(38.9517 28.259)">
<stop stop-color="#3FEE69"/>
<stop offset="0.1" stop-color="#3AE364"/>
<stop offset="0.28" stop-color="#2EC456"/>
<stop offset="0.52" stop-color="#1A9340"/>
<stop offset="0.8" stop-color="#005122"/>
</radialGradient>
<radialGradient id="paint36_radial_2650_16844" cx="0" cy="0" r="1" gradientUnits="userSpaceOnUse" gradientTransform="translate(32.2315 1.36153) scale(39.2421 28.1933)">
<stop stop-color="#41EF6A"/>
<stop offset="0.1" stop-color="#3CE465"/>
<stop offset="0.28" stop-color="#30C557"/>
<stop offset="0.51" stop-color="#1C9441"/>
<stop offset="0.79" stop-color="#015022"/>
<stop offset="0.8" stop-color="#004E21"/>
</radialGradient>
<radialGradient id="paint37_radial_2650_16844" cx="0" cy="0" r="1" gradientUnits="userSpaceOnUse" gradientTransform="translate(32.1741 1.43016) scale(39.1564 28.1318)">
<stop stop-color="#43F16B"/>
<stop offset="0.1" stop-color="#3EE666"/>
<stop offset="0.27" stop-color="#32C758"/>
<stop offset="0.5" stop-color="#1E9642"/>
<stop offset="0.77" stop-color="#035223"/>
<stop offset="0.8" stop-color="#004B20"/>
</radialGradient>
<radialGradient id="paint38_radial_2650_16844" cx="0" cy="0" r="1" gradientUnits="userSpaceOnUse" gradientTransform="translate(32.1203 1.5035) scale(39.0678 28.0682)">
<stop stop-color="#45F26C"/>
<stop offset="0.1" stop-color="#40E767"/>
<stop offset="0.27" stop-color="#34C859"/>
<stop offset="0.49" stop-color="#209742"/>
<stop offset="0.76" stop-color="#055323"/>
<stop offset="0.8" stop-color="#00481E"/>
</radialGradient>
<radialGradient id="paint39_radial_2650_16844" cx="0" cy="0" r="1" gradientUnits="userSpaceOnUse" gradientTransform="translate(32.0637 1.5781) scale(38.9764 28.0024)">
<stop stop-color="#46F46C"/>
<stop offset="0.09" stop-color="#41E967"/>
<stop offset="0.26" stop-color="#35CA59"/>
<stop offset="0.48" stop-color="#229943"/>
<stop offset="0.74" stop-color="#065524"/>
<stop offset="0.8" stop-color="#00451D"/>
</radialGradient>
<radialGradient id="paint40_radial_2650_16844" cx="0" cy="0" r="1" gradientUnits="userSpaceOnUse" gradientTransform="translate(32.0088 1.66107) scale(38.8848 27.9367)">
<stop stop-color="#48F56D"/>
<stop offset="0.09" stop-color="#43EA68"/>
<stop offset="0.25" stop-color="#37CB5A"/>
<stop offset="0.47" stop-color="#239A44"/>
<stop offset="0.73" stop-color="#085625"/>
<stop offset="0.8" stop-color="#00421C"/>
</radialGradient>
<linearGradient id="paint41_linear_2650_16844" x1="32.6428" y1="21.7474" x2="29.2894" y2="-2.29918" gradientUnits="userSpaceOnUse">
<stop offset="0.1" stop-color="#FF8475"/>
<stop offset="0.37" stop-color="#E84E43"/>
<stop offset="0.6" stop-color="#D6261F"/>
<stop offset="0.79" stop-color="#CC0E08"/>
<stop offset="0.9" stop-color="#C80500"/>
</linearGradient>
<clipPath id="clip0_2650_16844">
<rect width="18" height="18" fill="white" transform="translate(20.25)"/>
</clipPath>
<clipPath id="clip1_2650_16844">
<rect width="18" height="18" rx="9" fill="white"/>
</clipPath>
</defs>
</svg>
