<svg width="17" height="16" viewBox="0 0 17 16" fill="none" xmlns="http://www.w3.org/2000/svg">
<path d="M8.49967 0.648438C5.31169 0.652053 2.72822 3.23552 2.72461 6.4235C2.72461 11.3651 7.97466 15.0972 8.19845 15.2534C8.37928 15.3801 8.62005 15.3801 8.80089 15.2534C9.02467 15.0972 14.2747 11.3651 14.2747 6.4235C14.2711 3.23552 11.6876 0.652053 8.49967 0.648438ZM8.49967 4.32347C10.1163 4.32347 11.1266 6.07349 10.3183 7.47351C9.51004 8.87352 7.4893 8.87352 6.68099 7.47351C6.49668 7.15426 6.39964 6.79213 6.39964 6.4235C6.39964 5.26365 7.33982 4.32342 8.49967 4.32347Z" fill="#102938" style="fill:#102938;fill:color(display-p3 0.0620 0.1626 0.2183);fill-opacity:1;"/>
</svg>
