<svg width="20" height="20" viewBox="0 0 20 20" fill="none" xmlns="http://www.w3.org/2000/svg">
<g clip-path="url(#clip0_16428_16993)">
<circle cx="11" cy="10" r="9" fill="#FFADC7" style="fill:#FFADC7;fill:color(display-p3 1.0000 0.6800 0.7813);fill-opacity:1;"/>
<path d="M9.99986 13.7914V9.0545H9.52619M9.52619 13.7914H10.4735M9.99986 6.68603V6.21233M7.83354 2.07982C8.38395 1.61087 8.65963 1.37591 8.94763 1.23854C9.27628 1.08151 9.6359 1 10.0001 1C10.3644 1 10.724 1.08151 11.0526 1.23854C11.3406 1.37591 11.6163 1.61087 12.1667 2.07982C12.7342 2.56299 13.3102 2.80742 14.0681 2.8671C14.789 2.9249 15.15 2.95426 15.4512 3.06037C16.1466 3.30669 16.6941 3.85334 16.9395 4.54967C17.0456 4.84999 17.075 5.21095 17.1328 5.93286C17.1924 6.69077 17.4359 7.26583 17.9191 7.83332C18.389 8.38375 18.6239 8.65944 18.7613 8.94745C19.0796 9.61347 19.0796 10.3875 18.7613 11.0526C18.6239 11.3406 18.389 11.6162 17.92 12.1667C17.4509 12.6937 17.1735 13.3637 17.1328 14.0681C17.075 14.7891 17.0456 15.15 16.9395 15.4513C16.818 15.7948 16.6213 16.1067 16.3636 16.3643C16.1059 16.6218 15.7938 16.8184 15.4503 16.9396C15.15 17.0457 14.789 17.0751 14.0671 17.1329C13.3092 17.1926 12.7342 17.4361 12.1667 17.9192C11.6163 18.3891 11.3406 18.6241 11.0526 18.7615C10.724 18.9185 10.3644 19 10.0001 19C9.6359 19 9.27628 18.9185 8.94763 18.7615C8.65963 18.6241 8.38395 18.3891 7.83354 17.9202C7.30652 17.4511 6.63656 17.1737 5.9322 17.1329C5.21126 17.0751 4.85032 17.0457 4.54906 16.9396C4.20559 16.8182 3.89365 16.6214 3.63612 16.3637C3.3786 16.106 3.18201 15.7939 3.06077 15.4503C2.95467 15.15 2.9253 14.7891 2.86751 14.0671C2.82687 13.3632 2.54981 12.6936 2.0812 12.1667C1.61132 11.6162 1.37637 11.3406 1.23806 11.0526C1.08118 10.7238 0.999836 10.3641 1 9.99989C1.00016 9.63564 1.08183 9.27604 1.23901 8.94745C1.37637 8.65944 1.61132 8.38375 2.08026 7.83332C2.57288 7.25447 2.80877 6.67466 2.86751 5.93191C2.9253 5.21095 2.95467 4.84999 3.06077 4.54872C3.18222 4.20523 3.37901 3.89329 3.6367 3.63575C3.8944 3.37821 4.20646 3.18161 4.55001 3.06037C4.85032 2.95426 5.21126 2.9249 5.93315 2.8671C6.63708 2.82646 7.30668 2.54845 7.83354 2.07982Z" stroke="#102938" style="stroke:#102938;stroke:color(display-p3 0.0620 0.1626 0.2183);stroke-opacity:1;" stroke-width="1.5" stroke-linecap="round" stroke-linejoin="round"/>
</g>
<defs>
<clipPath id="clip0_16428_16993">
<rect width="20" height="20" fill="white" style="fill:white;fill-opacity:1;"/>
</clipPath>
</defs>
</svg>
