<svg width="20" height="20" viewBox="0 0 20 20" fill="none" xmlns="http://www.w3.org/2000/svg">
<circle cx="11" cy="10" r="9" fill="#B3F9A7" style="fill:#B3F9A7;fill:color(display-p3 0.7020 0.9765 0.6549);fill-opacity:1;"/>
<path d="M14.4909 19.0919C16.5382 17.0932 16.6768 14.5322 16.9282 12.9984C17.3617 10.3545 14.4907 9.2692 11.3133 8.65342L11.7214 2.74696C11.7851 1.82551 11.0548 1.04298 10.1312 1.04297C9.32225 1.04296 8.64157 1.6488 8.54778 2.45224L7.88549 8.02614L6.42655 2.72728C6.16932 1.79304 5.19842 1.21817 4.2557 1.44191C3.31452 1.66529 2.75543 2.60077 3.00458 3.53529L5.03374 11.146M5.64438 19.0912C2.87965 17.9886 2.44781 15.1891 2.57405 13.2337C2.65342 12.0046 3.76959 11.1484 5.00134 11.1484H9.46588C10.2717 11.1484 10.9249 11.8017 10.9249 12.6075C10.9249 13.2822 10.4622 13.869 9.80607 14.0263L7.27884 14.6322C8.07509 14.5018 9.89394 15.3053 9.961 17.0584" stroke="#102938" style="stroke:#102938;stroke:color(display-p3 0.0620 0.1626 0.2183);stroke-opacity:1;" stroke-width="1.5" stroke-linecap="round" stroke-linejoin="round"/>
</svg>
