<svg width="20" height="20" viewBox="0 0 20 20" fill="none" xmlns="http://www.w3.org/2000/svg">
<circle cx="11" cy="10" r="9" fill="#CFB1FF" style="fill:#CFB1FF;fill:color(display-p3 0.8109 0.6934 1.0000);fill-opacity:1;"/>
<path d="M12.3006 11.8215C12.59 11.1793 12.8808 10.5184 13.1512 9.83369C13.3802 9.25388 13.5876 8.67486 13.7846 8.1045C15.1398 8.20167 16.1628 7.52812 16.716 6.12742C17.2939 4.66421 16.9815 3.3637 15.8552 2.3803C15.8414 2.41602 15.8274 2.45196 15.8131 2.48811C15.0258 4.48136 14.3197 4.74427 13.4103 4.33537C12.501 3.92647 12.1842 3.20355 12.9714 1.2103C12.9923 1.15743 13.0133 1.10533 13.0344 1.05401C11.4939 0.797 10.3333 1.45988 9.73038 2.98627C9.17714 4.38696 9.43969 5.63852 10.4513 6.60558C10.2062 7.15436 9.96267 7.71713 9.73366 8.29696C9.46322 8.98167 9.22288 9.66526 8.99426 10.3348C8.87878 10.673 8.83041 11.0426 8.85132 11.4012M3 18.2184C3.85444 18.479 8.20358 19 10.2542 19C11.8121 19 13.2849 15.4252 13.2849 13.8624C13.2849 12.2995 11.8201 11.5181 11.0878 11.5181H8.42408L8.65935 10.9371C9.23671 9.51126 8.42776 7.88174 6.99793 7.59034C6.53199 7.49538 6.05974 7.71893 5.81306 8.15124L3 13.0809" stroke="#102938" style="stroke:#102938;stroke:color(display-p3 0.0620 0.1626 0.2183);stroke-opacity:1;" stroke-width="1.5" stroke-linecap="round" stroke-linejoin="round"/>
</svg>
