<svg width="20" height="20" viewBox="0 0 20 20" fill="none" xmlns="http://www.w3.org/2000/svg">
<path fill-rule="evenodd" clip-rule="evenodd" d="M2.0939 9.31615C7.01357 7.08169 10.2942 5.60858 11.9355 4.89691C16.6222 2.86483 17.596 2.5118 18.2307 2.50012C18.3703 2.49758 18.6825 2.53366 18.8847 2.70471C19.1846 2.95842 19.1863 3.50915 19.153 3.87365C18.899 6.65548 17.8001 13.4062 17.241 16.5218C17.0044 17.8402 16.5386 18.2823 16.0877 18.3255C15.1077 18.4195 14.3636 17.6503 13.4144 17.0017C11.9291 15.9867 11.09 15.3549 9.64819 14.3645C7.98202 13.2199 9.06215 12.5908 10.0117 11.5626C10.2602 11.2936 14.5781 7.19927 14.6617 6.82783C14.6722 6.78138 14.6819 6.6082 14.5832 6.5168C14.4845 6.4254 14.3389 6.4566 14.2338 6.48148C14.0848 6.51673 11.7121 8.15168 7.11548 11.3862C6.44196 11.8684 5.83192 12.1033 5.28537 12.091C4.68278 12.0774 3.52374 11.7358 2.66208 11.4438C1.60523 11.0857 0.765255 10.8963 0.838428 10.2881C0.876531 9.97127 1.295 9.64732 2.0939 9.31615Z" fill="#27A7E7" style="fill:#27A7E7;fill:color(display-p3 0.1529 0.6549 0.9059);fill-opacity:1;"/>
</svg>
