<svg width="20" height="20" viewBox="0 0 20 20" fill="none" xmlns="http://www.w3.org/2000/svg">
<circle opacity="0.5" cx="10" cy="10" r="9" fill="#69CAFF" style="fill:#69CAFF;fill:color(display-p3 0.4133 0.7910 1.0000);fill-opacity:1;"/>
<path d="M2.5 5.0013H18.3333L15.8333 13.3346H5L2.5 5.0013ZM2.5 5.0013L1.875 2.91797M9.16667 16.2513C9.16667 16.5828 9.03497 16.9008 8.80055 17.1352C8.56613 17.3696 8.24819 17.5013 7.91667 17.5013C7.58515 17.5013 7.2672 17.3696 7.03278 17.1352C6.79836 16.9008 6.66667 16.5828 6.66667 16.2513M14.1667 16.2513C14.1667 16.5828 14.035 16.9008 13.8006 17.1352C13.5661 17.3696 13.2482 17.5013 12.9167 17.5013C12.5851 17.5013 12.2672 17.3696 12.0328 17.1352C11.7984 16.9008 11.6667 16.5828 11.6667 16.2513" stroke="#102938" style="stroke:#102938;stroke:color(display-p3 0.0620 0.1626 0.2183);stroke-opacity:1;" stroke-width="1.5" stroke-linecap="round" stroke-linejoin="round"/>
</svg>
