<svg width="20" height="20" viewBox="0 0 20 20" fill="none" xmlns="http://www.w3.org/2000/svg">
<path fill-rule="evenodd" clip-rule="evenodd" d="M20 10.4167C20 14.9333 20 17.1917 18.6 18.6C17.1917 20 14.9333 20 10.4167 20H9.58333C5.06667 20 2.80833 20 1.4 18.6C0 17.1917 0 14.9333 0 10.4167V9.58333C0 5.06667 0 2.80833 1.4 1.4C2.80833 0 5.06667 0 9.58333 0H10.4167C14.9333 0 17.1917 0 18.6 1.4C20 2.80833 20 5.06667 20 9.58333V10.4167Z" fill="#0077FF" style="fill:#0077FF;fill:color(display-p3 0.0000 0.4667 1.0000);fill-opacity:1;"/>
<path d="M8.275 0C11.9417 0.0166667 13.8917 0.141667 15.15 1.4C16.55 2.80833 16.55 5.06667 16.55 9.58333V10.4167C16.55 14.9333 16.55 17.1917 15.15 18.6C13.8917 19.85 11.9333 19.9833 8.275 20C4.61667 19.9833 2.66667 19.8583 1.4 18.6C0 17.1917 0 14.9333 0 10.4167V9.58333C0 5.06667 0 2.80833 1.4 1.4C2.66667 0.141667 4.61667 0.0166667 8.275 0Z" fill="#FF2B42" style="fill:#FF2B42;fill:color(display-p3 1.0000 0.1686 0.2588);fill-opacity:1;"/>
<path fill-rule="evenodd" clip-rule="evenodd" d="M6.69987 6.93235C6.64055 6.90759 6.57638 6.89661 6.5122 6.90024C6.44802 6.90387 6.38549 6.92201 6.32934 6.9533C6.27318 6.98459 6.22486 7.0282 6.188 7.08087C6.15114 7.13353 6.1267 7.19388 6.11654 7.25735C5.94579 8.15272 5.86207 9.06252 5.86654 9.97402C5.86654 10.924 5.94987 11.849 6.1332 12.7407C6.14226 12.8049 6.16589 12.8662 6.20229 12.9198C6.23868 12.9735 6.28688 13.0181 6.34318 13.0503C6.39948 13.0825 6.46239 13.1013 6.52711 13.1055C6.59182 13.1096 6.65662 13.0988 6.71654 13.074C8.38658 12.4598 9.92078 11.5256 11.2332 10.324C11.2782 10.2827 11.314 10.2324 11.3386 10.1765C11.3631 10.1205 11.3758 10.0601 11.3758 9.99902C11.3758 9.93793 11.3631 9.8775 11.3386 9.82156C11.314 9.76562 11.2782 9.71538 11.2332 9.67402C9.91585 8.47054 8.37583 7.53634 6.69987 6.92402V6.93235ZM4.0832 6.85735C4.15184 6.50245 4.29661 6.16667 4.50755 5.87313C4.71849 5.57959 4.99058 5.33528 5.30506 5.15705C5.61953 4.97883 5.96892 4.87091 6.32913 4.84075C6.68933 4.81059 7.0518 4.8589 7.39154 4.98235C9.32254 5.68425 11.0975 6.75718 12.6165 8.14068C12.8771 8.37512 13.0854 8.66171 13.228 8.98185C13.3705 9.302 13.4442 9.64855 13.4442 9.99902C13.4442 10.3495 13.3705 10.696 13.228 11.0162C13.0854 11.3363 12.8771 11.6229 12.6165 11.8573C11.1018 13.236 9.33262 14.306 7.4082 15.0074C7.06963 15.1309 6.70834 15.1797 6.34912 15.1506C5.98989 15.1214 5.64121 15.015 5.32698 14.8385C5.01275 14.6619 4.7404 14.4196 4.5286 14.128C4.31679 13.8364 4.17054 13.5024 4.09987 13.149C3.89009 12.1037 3.78402 11.0402 3.7832 9.97402C3.7832 8.90735 3.89154 7.86568 4.0832 6.85735Z" fill="white" style="fill:white;fill-opacity:1;"/>
</svg>
