<svg width="20" height="20" viewBox="0 0 20 20" fill="none" xmlns="http://www.w3.org/2000/svg">
<path fill-rule="evenodd" clip-rule="evenodd" d="M0.00266246 10.0015C0.00149127 4.47899 4.47506 0.0011766 9.99464 4.80985e-06C11.8658 -0.001831 13.6998 0.521883 15.288 1.51158C19.9732 4.43106 21.4058 10.5979 18.4879 15.2855C15.5699 19.9732 9.40628 21.4066 4.72108 18.4871L0.556866 19.9745C0.51201 19.9907 0.464655 19.9989 0.416949 19.9987C0.365534 19.9987 0.314587 19.9892 0.266608 19.9707C0.0520473 19.8879 -0.0547645 19.6467 0.0280381 19.432L1.58294 15.3956C0.551517 13.7857 0.00305285 11.9137 0.00266246 10.0015ZM13.1008 10.8676C13.7396 11.2009 14.7599 11.7009 14.7599 11.7009C14.9023 11.7711 14.9924 11.9162 14.9923 12.0751V12.9083C14.7828 14.1218 13.7245 15.0041 12.4937 14.9915C11.1854 14.9915 8.67355 13.4266 7.61831 12.37C6.56308 11.3134 4.99818 8.80024 4.99818 7.49201C4.98553 6.26061 5.86739 5.20178 7.08027 4.99219H7.9131C8.07023 4.99234 8.21386 5.08097 8.28456 5.22135C8.28456 5.22217 8.7884 6.2421 9.11738 6.88206C9.48799 7.60533 8.79258 8.45445 8.39613 8.85524C8.63505 9.47781 8.99578 10.0464 9.45718 10.5276C9.93827 10.9892 10.5065 11.3501 11.1287 11.5892C11.5285 11.1926 12.378 10.4951 13.1008 10.8676Z" fill="#0DB25A" style="fill:#0DB25A;fill:color(display-p3 0.0510 0.6980 0.3529);fill-opacity:1;"/>
</svg>
