<svg width="20" height="20" viewBox="0 0 20 20" fill="none" xmlns="http://www.w3.org/2000/svg">
<g clip-path="url(#clip0_16428_17056)">
<path d="M16.9562 1.98042C17.1818 2.0083 17.4567 2.03291 17.6756 2.0988C18.4039 2.26496 19.0451 2.83294 19.3842 3.5765C19.6783 4.26829 19.7437 5.0332 19.8293 5.78436C19.9494 7.11364 19.9872 8.40129 20.0001 9.7331C19.967 11.0088 19.9308 12.1227 19.8289 13.3915C19.7556 14.0511 19.6867 14.7197 19.4825 15.3474C19.2179 16.0921 18.6641 16.6966 17.9954 16.967C17.716 17.0622 17.5054 17.0916 17.2324 17.1622C15.1608 17.4051 13.0308 17.4561 10.9476 17.4966C8.89068 17.526 7.04078 17.4568 5.08417 17.3511C4.40002 17.3142 2.66868 17.2248 2.08035 16.992C1.59296 16.7991 1.15043 16.4508 0.847615 15.9751C0.505064 15.4694 0.346125 14.8352 0.278512 14.2314C-0.0714098 11.1062 -0.116592 8.07368 0.286843 4.95718C0.359583 4.39571 0.478787 3.83388 0.751483 3.35133C1.05077 2.81919 1.51029 2.40469 2.03613 2.19364C3.0343 1.83273 4.72431 1.74729 6.10861 1.72087C6.85877 1.70639 7.59963 1.69408 8.33856 1.68539C11.1293 1.65281 14.1921 1.6405 16.9562 1.98042Z" fill="#FF0000" style="fill:#FF0000;fill:color(display-p3 1.0000 0.0000 0.0000);fill-opacity:1;"/>
<path d="M7.44336 5.43359L7.44584 13.9064L14.11 9.66885L7.44336 5.43359Z" fill="white" style="fill:white;fill-opacity:1;"/>
</g>
<defs>
<clipPath id="clip0_16428_17056">
<rect width="20" height="15.8333" fill="white" style="fill:white;fill-opacity:1;" transform="translate(0 1.66992)"/>
</clipPath>
</defs>
</svg>
