<svg width="16" height="16" viewBox="0 0 16 16" fill="none" xmlns="http://www.w3.org/2000/svg">
<g clip-path="url(#clip0_18116_4170)">
<path fill-rule="evenodd" clip-rule="evenodd" d="M3.83798 0.0588235C3.98504 -0.0196078 4.16151 -0.0196078 4.30857 0.0588235C5.96985 0.944844 6.84506 2.50285 7.27338 4.02725C7.70104 5.54927 7.70138 7.09447 7.56869 8.06756C7.5349 8.3153 7.32331 8.5 7.07327 8.5H4.57326V10.5C5.12554 10.5 5.57326 10.9477 5.57326 11.5V15C5.57326 15.5523 5.12554 16 4.57326 16H3.57326C3.02098 16 2.57326 15.5523 2.57326 15V11.5C2.57326 10.9477 3.02098 10.5 3.57326 10.5V8.5H1.07327C0.82324 8.5 0.611643 8.3153 0.57786 8.06756C0.445166 7.09447 0.445507 5.54927 0.873166 4.02725C1.30149 2.50285 2.17669 0.944844 3.83798 0.0588235ZM6.62263 7.5H4.57326V7C4.57326 6.72386 4.3494 6.5 4.07326 6.5C3.79712 6.5 3.57326 6.72386 3.57326 7V7.5H1.52392C1.46035 6.64184 1.5101 5.4572 1.83588 4.29775C2.19694 3.01275 2.88095 1.80896 4.07327 1.07605C5.26559 1.80896 5.9496 3.01275 6.31066 4.29775C6.63644 5.4572 6.68619 6.64184 6.62263 7.5ZM12.5733 1.5C12.5733 1.22386 12.3494 1 12.0733 1C11.7971 1 11.5733 1.22386 11.5733 1.5V7.5H10.5733C10.021 7.5 9.57326 7.05228 9.57326 6.5V1.5C9.57326 1.22386 9.3494 1 9.07326 1C8.79712 1 8.57326 1.22386 8.57326 1.5V6.5C8.57326 7.60457 9.46869 8.5 10.5733 8.5H11.5733V10.5C11.021 10.5 10.5733 10.9477 10.5733 11.5V15C10.5733 15.5523 11.021 16 11.5733 16H12.5733C13.1255 16 13.5733 15.5523 13.5733 15V11.5C13.5733 10.9477 13.1255 10.5 12.5733 10.5V8.5H13.5733C14.6778 8.5 15.5733 7.60457 15.5733 6.5V1.5C15.5733 1.22386 15.3494 1 15.0733 1C14.7971 1 14.5733 1.22386 14.5733 1.5V6.5C14.5733 7.05229 14.1255 7.5 13.5733 7.5H12.5733V1.5ZM12.0733 11.5H11.5733V15H12.5733V11.5H12.0733ZM3.57326 11.5H4.07326H4.57326V15H3.57326V11.5Z" fill="#102938" style="fill:#102938;fill:color(display-p3 0.0620 0.1626 0.2183);fill-opacity:1;"/>
</g>
<defs>
<clipPath id="clip0_18116_4170">
<rect width="16" height="16" fill="white" style="fill:white;fill-opacity:1;"/>
</clipPath>
</defs>
</svg>
