<svg width="16" height="16" viewBox="0 0 16 16" fill="none" xmlns="http://www.w3.org/2000/svg">
<g clip-path="url(#clip0_18116_11023)">
<path fill-rule="evenodd" clip-rule="evenodd" d="M6.58397 2.18143e-06C6.73293 -0.000437373 6.87434 0.06557 6.96967 0.180045C8.00073 1.41822 8.73112 2.28257 9.28978 2.94369C10.3017 4.14115 10.7502 4.67191 11.4015 5.54975C11.5661 5.77151 11.5197 6.08467 11.2979 6.24922C11.0762 6.41377 10.763 6.36739 10.5985 6.14563C9.96587 5.2931 9.54246 4.7921 8.5526 3.62085C8.06533 3.04428 7.44079 2.30529 6.58647 1.282C6.17215 1.77787 5.77432 2.24292 5.39582 2.68537C4.48729 3.74742 3.6902 4.67919 3.0441 5.59407C2.06329 6.98288 1.5 8.24447 1.5 9.70085C1.5 12.6454 3.79436 15 6.58544 15C6.86158 15 7.08544 15.2239 7.08544 15.5C7.08544 15.7761 6.86158 16 6.58544 16C3.20702 16 0.5 13.1619 0.5 9.70085C0.5 7.95445 1.1867 6.49062 2.22726 5.0172C2.89881 4.06629 3.74737 3.07386 4.67894 1.98435C5.16743 1.41303 5.67875 0.815026 6.19934 0.182318C6.29398 0.0672823 6.435 0.000441706 6.58397 2.18143e-06ZM4 6.5C4.27614 6.5 4.5 6.72386 4.5 7V9H6.5V7C6.5 6.72386 6.72385 6.5 6.99999 6.5C7.27614 6.5 7.49999 6.72386 7.49999 7V12C7.49999 12.2761 7.27614 12.5 6.99999 12.5C6.72385 12.5 6.5 12.2761 6.5 12V10H4.5V12C4.5 12.2761 4.27614 12.5 4 12.5C3.72386 12.5 3.5 12.2761 3.5 12L3.5 7C3.5 6.72386 3.72386 6.5 4 6.5ZM11 8.75C11 7.50736 12.0074 6.5 13.25 6.5C14.4926 6.5 15.5 7.50736 15.5 8.75V10.25C15.5 11.4926 14.4926 12.5 13.25 12.5C12.0074 12.5 11 11.4926 11 10.25V8.75ZM13.25 7.5C12.5596 7.5 12 8.05964 12 8.75V10.25C12 10.9404 12.5596 11.5 13.25 11.5C13.9403 11.5 14.5 10.9404 14.5 10.25V8.75C14.5 8.05964 13.9403 7.5 13.25 7.5ZM9.12369 11.7088C9.0321 11.8526 9.00082 12.0207 8.99686 12.0559C8.96598 12.3303 8.71849 12.5278 8.44408 12.4969C8.16967 12.466 7.97225 12.2185 8.00313 11.9441C8.01713 11.8197 8.07877 11.4878 8.28033 11.1715C8.49604 10.8329 8.88613 10.5 9.50475 10.5C10.0604 10.5 10.4588 10.7417 10.7021 11.0763C10.9275 11.3863 11 11.7458 11 12C11 12.3163 10.8594 12.6141 10.7111 12.8527C10.556 13.1023 10.3503 13.3529 10.1387 13.5869C10.0122 13.7268 9.87903 13.8658 9.74701 14H10.5C10.7761 14 11 14.2239 11 14.5C11 14.7761 10.7761 15 10.5 15H8.5474C8.34835 15 8.16826 14.8819 8.08888 14.6994C8.0095 14.5169 8.04595 14.3046 8.18169 14.159C8.32862 14.0014 8.50638 13.8251 8.68601 13.6469C8.71555 13.6176 8.74513 13.5883 8.77464 13.559C8.98801 13.3469 9.20331 13.1304 9.39688 12.9163C9.59203 12.7004 9.75245 12.5008 9.86174 12.3249C9.97789 12.138 9.99999 12.0349 9.99999 12C9.99999 11.9085 9.96862 11.768 9.89331 11.6644C9.83588 11.5855 9.7366 11.5 9.50475 11.5C9.30443 11.5 9.20112 11.5873 9.12369 11.7088Z" fill="#102938" style="fill:#102938;fill:color(display-p3 0.0620 0.1626 0.2183);fill-opacity:1;"/>
</g>
<defs>
<clipPath id="clip0_18116_11023">
<rect width="16" height="16" fill="white" style="fill:white;fill-opacity:1;"/>
</clipPath>
</defs>
</svg>
