<svg width="16" height="16" viewBox="0 0 16 16" fill="none" xmlns="http://www.w3.org/2000/svg">
<path fill-rule="evenodd" clip-rule="evenodd" d="M4 0.5C4 0.223858 4.22385 0 4.5 0H9.99999C10.2761 0 10.5 0.223858 10.5 0.5V1H13.25C13.5261 1 13.75 1.22386 13.75 1.5V3.25H14.5C14.7761 3.25 15 3.47386 15 3.75C15 4.02614 14.7761 4.25 14.5 4.25H13.25C12.9738 4.25 12.75 4.02614 12.75 3.75V2H12V10H13.5C13.7761 10 14 10.2239 14 10.5V15.5C14 15.7761 13.7761 16 13.5 16H1.5C1.22386 16 1 15.7761 1 15.5V10.5C1 10.2239 1.22386 10 1.5 10H2.5V2H1C0.723857 2 0.5 1.77614 0.5 1.5C0.5 1.22386 0.723857 1 1 1H4V0.5ZM9.49999 1V2H5V1H9.49999ZM4 2.5V2H3.5V10H11V2H10.5V2.5C10.5 2.77614 10.2761 3 9.99999 3H7.75V4H9.5C9.64494 4 9.78275 4.0629 9.87772 4.1724C9.97269 4.2819 10.0155 4.42722 9.99497 4.57071L9.49497 8.07071C9.45978 8.31704 9.24882 8.5 9 8.5H5.5C5.25117 8.5 5.04021 8.31704 5.00503 8.07071L4.50503 4.57071C4.48453 4.42722 4.5273 4.2819 4.62227 4.1724C4.71724 4.0629 4.85505 4 5 4H6.75V3H4.5C4.22385 3 4 2.77614 4 2.5ZM8.49999 11H2V12.5H8.49999V11ZM9.49999 12.5V11H13V12.5L9.49999 12.5ZM13 13.5V15H6V13.5L13 13.5ZM5 15V13.5H2V15H5ZM5.93365 7.5L5.5765 5H8.92349L8.56635 7.5H5.93365Z" fill="#102938" style="fill:#102938;fill:color(display-p3 0.0620 0.1626 0.2183);fill-opacity:1;"/>
</svg>
