<svg width="16" height="16" viewBox="0 0 16 16" fill="none" xmlns="http://www.w3.org/2000/svg">
<g clip-path="url(#clip0_17396_16870)">
<path fill-rule="evenodd" clip-rule="evenodd" d="M6.25 1.5C5.2835 1.5 4.5 2.2835 4.5 3.25C4.5 3.46848 4.5398 3.6765 4.6121 3.868C4.67721 4.04046 4.64215 4.23475 4.52087 4.37357C4.39959 4.5124 4.21176 4.57322 4.03212 4.53186C3.94193 4.51108 3.84757 4.5 3.75 4.5C3.05964 4.5 2.5 5.05964 2.5 5.75C2.5 6.44036 3.05964 7 3.75 7H9.24999C9.94035 7 10.5 6.44036 10.5 5.75C10.5 5.05964 9.94035 4.5 9.24999 4.5C8.97517 4.5 8.7224 4.58811 8.51644 4.73773C8.32699 4.87534 8.06743 4.86305 7.89183 4.70817C7.71623 4.55328 7.67164 4.29727 7.78452 4.09213C7.92174 3.84278 7.99999 3.55628 7.99999 3.25C7.99999 2.2835 7.21649 1.5 6.25 1.5ZM1.75 8C1.33579 8 0.999999 8.33579 0.999999 8.75C0.999999 9.16421 1.33579 9.5 1.75 9.5H14.25C14.6642 9.5 15 9.16421 15 8.75C15 8.33579 14.6642 8 14.25 8H1.75ZM14.4025 10.4934C15.2976 10.4162 16 9.6651 16 8.75C16 7.7835 15.2165 7 14.25 7H11.1211C11.3604 6.64248 11.5 6.21254 11.5 5.75C11.5 4.50736 10.4926 3.5 9.24999 3.5C9.16118 3.5 9.07353 3.50516 8.98734 3.51521C8.99571 3.42789 8.99999 3.33942 8.99999 3.25C8.99999 1.73122 7.76878 0.5 6.25 0.5C4.73121 0.5 3.5 1.73122 3.5 3.25C3.5 3.33843 3.50419 3.42597 3.51239 3.5124C2.38144 3.6311 1.5 4.58761 1.5 5.75C1.5 6.21254 1.63957 6.64248 1.87889 7H1.75C0.783501 7 0 7.7835 0 8.75C0 9.6651 0.702389 10.4162 1.59746 10.4934L1.90285 11.8677C2.24975 13.4288 3.48175 14.6057 5 14.918V15.5C5 15.7761 5.22385 16 5.5 16C5.77614 16 6 15.7761 6 15.5V15H10.1924C10.2957 15 10.3983 14.996 10.5 14.9883V15.5C10.5 15.7761 10.7239 16 11 16C11.2761 16 11.5 15.7761 11.5 15.5V14.7807C12.7839 14.3364 13.7892 13.2534 14.0971 11.8677L14.4025 10.4934ZM13.3767 10.5H2.62331L2.87904 11.6508C3.18406 13.0234 4.4015 14 5.8076 14H10.1924C11.5985 14 12.8159 13.0234 13.121 11.6508L13.3767 10.5Z" fill="#102938" style="fill:#102938;fill:color(display-p3 0.0620 0.1626 0.2183);fill-opacity:1;"/>
</g>
<defs>
<clipPath id="clip0_17396_16870">
<rect width="16" height="16" fill="white" style="fill:white;fill-opacity:1;"/>
</clipPath>
</defs>
</svg>
