<svg width="14" height="14" viewBox="0 0 14 14" fill="none" xmlns="http://www.w3.org/2000/svg">
<path fill-rule="evenodd" clip-rule="evenodd" d="M3.5 1.1H2.8C2.10894 1.1 1.7013 1.10234 1.41039 1.14145C1.28174 1.15874 1.21774 1.17853 1.19 1.19C1.17853 1.21775 1.15874 1.28174 1.14145 1.41039C1.10234 1.7013 1.1 2.10894 1.1 2.8V3.5C1.1 4.19106 1.10234 4.5987 1.14145 4.88961C1.15874 5.01826 1.17853 5.08225 1.19 5.11C1.21774 5.12147 1.28174 5.14126 1.41039 5.15855C1.7013 5.19766 2.10893 5.2 2.8 5.2H3.5C4.19106 5.2 4.5987 5.19766 4.88961 5.15855C5.01826 5.14126 5.08225 5.12147 5.11 5.11C5.12146 5.08225 5.14125 5.01826 5.15855 4.88961C5.19766 4.5987 5.2 4.19106 5.2 3.5V2.8C5.2 2.10894 5.19766 1.7013 5.15855 1.41039C5.14125 1.28174 5.12146 1.21775 5.11 1.19C5.08225 1.17853 5.01826 1.15874 4.88961 1.14145C4.5987 1.10234 4.19106 1.1 3.5 1.1ZM5.12798 1.1996C5.12798 1.1996 5.12395 1.19808 5.11882 1.19392C5.1259 1.19734 5.12798 1.1996 5.12798 1.1996ZM5.10608 1.18118C5.10192 1.17604 5.10039 1.17201 5.10039 1.17201C5.10039 1.17201 5.10266 1.1741 5.10608 1.18118ZM5.10039 5.12799C5.10039 5.12799 5.10192 5.12396 5.10608 5.11882C5.10266 5.12591 5.10039 5.12799 5.10039 5.12799ZM5.11882 5.10608C5.12395 5.10192 5.12798 5.1004 5.12798 5.1004C5.12798 5.1004 5.1259 5.10266 5.11882 5.10608ZM1.17201 5.1004C1.17201 5.1004 1.17604 5.10192 1.18118 5.10608C1.17409 5.10266 1.17201 5.1004 1.17201 5.1004ZM1.19392 5.11882C1.19808 5.12396 1.1996 5.12799 1.1996 5.12799C1.1996 5.12799 1.19734 5.1259 1.19392 5.11882ZM1.1996 1.17201C1.1996 1.17201 1.19808 1.17604 1.19392 1.18118C1.19734 1.1741 1.1996 1.17201 1.1996 1.17201ZM1.18118 1.19392C1.17604 1.19808 1.17201 1.1996 1.17201 1.1996C1.17201 1.1996 1.1741 1.19734 1.18118 1.19392ZM3.5 8.8H2.8C2.10894 8.8 1.7013 8.80234 1.41039 8.84145C1.28174 8.85874 1.21775 8.87853 1.19 8.89C1.17854 8.91774 1.15874 8.98174 1.14145 9.11039C1.10234 9.4013 1.1 9.80894 1.1 10.5V11.2C1.1 11.8911 1.10234 12.2987 1.14145 12.5896C1.15874 12.7183 1.17854 12.7823 1.19 12.81C1.21775 12.8215 1.28174 12.8413 1.41039 12.8586C1.7013 12.8977 2.10893 12.9 2.8 12.9H3.5C4.19106 12.9 4.5987 12.8977 4.88961 12.8586C5.01825 12.8413 5.08225 12.8215 5.11 12.81C5.12146 12.7823 5.14125 12.7183 5.15855 12.5896C5.19766 12.2987 5.2 11.8911 5.2 11.2V10.5C5.2 9.80894 5.19766 9.4013 5.15855 9.11039C5.14125 8.98174 5.12146 8.91774 5.10999 8.89C5.08225 8.87853 5.01825 8.85874 4.88961 8.84145C4.5987 8.80234 4.19106 8.8 3.5 8.8ZM5.12799 8.8996C5.12799 8.8996 5.12396 8.89808 5.11881 8.89392C5.12589 8.89733 5.12799 8.8996 5.12799 8.8996ZM5.10608 8.88118C5.10192 8.87604 5.10039 8.87201 5.10039 8.87201C5.10039 8.87201 5.10266 8.8741 5.10608 8.88118ZM5.10039 12.828C5.10039 12.828 5.10193 12.8239 5.10608 12.8188C5.10265 12.8259 5.10039 12.828 5.10039 12.828ZM5.11881 12.8061C5.12395 12.8019 5.12798 12.8004 5.12798 12.8004C5.12798 12.8004 5.1259 12.8027 5.11881 12.8061ZM1.17201 12.8004C1.17201 12.8004 1.17604 12.8019 1.18118 12.8061C1.1741 12.8027 1.17201 12.8004 1.17201 12.8004ZM1.19392 12.8188C1.19808 12.824 1.1996 12.828 1.1996 12.828C1.1996 12.828 1.19734 12.8259 1.19392 12.8188ZM1.1996 8.87201C1.1996 8.87201 1.19808 8.87604 1.19392 8.88118C1.19734 8.8741 1.1996 8.87201 1.1996 8.87201ZM1.18118 8.89392C1.17604 8.89808 1.17201 8.8996 1.17201 8.8996C1.17201 8.8996 1.1741 8.89734 1.18118 8.89392ZM11.2 1.1H10.5C9.80893 1.1 9.40129 1.10234 9.11039 1.14145C8.98174 1.15874 8.91774 1.17853 8.89 1.19C8.87853 1.21775 8.85874 1.28174 8.84144 1.41039C8.80233 1.7013 8.79999 2.10894 8.79999 2.8V3.5C8.79999 4.19106 8.80233 4.5987 8.84144 4.88961C8.85874 5.01826 8.87853 5.08225 8.89 5.11C8.91774 5.12147 8.98174 5.14126 9.11039 5.15855C9.40129 5.19766 9.80893 5.2 10.5 5.2H11.2C11.8911 5.2 12.2987 5.19766 12.5896 5.15855C12.7182 5.14126 12.7822 5.12146 12.81 5.11C12.8215 5.08225 12.8412 5.01826 12.8585 4.88961C12.8977 4.5987 12.9 4.19106 12.9 3.5V2.8C12.9 2.10894 12.8977 1.7013 12.8585 1.41039C12.8412 1.28174 12.8215 1.21775 12.81 1.19C12.7822 1.17853 12.7182 1.15874 12.5896 1.14145C12.2987 1.10234 11.8911 1.1 11.2 1.1ZM12.828 1.1996C12.828 1.1996 12.8239 1.19808 12.8188 1.19392C12.8259 1.19734 12.828 1.1996 12.828 1.1996ZM12.8061 1.18118C12.8019 1.17604 12.8004 1.17201 12.8004 1.17201C12.8004 1.17201 12.8027 1.1741 12.8061 1.18118ZM12.8004 5.12799C12.8004 5.12799 12.8019 5.12396 12.8061 5.11882C12.8027 5.1259 12.8004 5.12799 12.8004 5.12799ZM12.8188 5.10608C12.824 5.10192 12.828 5.1004 12.828 5.1004C12.828 5.1004 12.8259 5.10266 12.8188 5.10608ZM8.87201 5.1004C8.87201 5.1004 8.87604 5.10192 8.88118 5.10608C8.87409 5.10266 8.87201 5.1004 8.87201 5.1004ZM8.89391 5.11882C8.89807 5.12396 8.8996 5.12799 8.8996 5.12799C8.8996 5.12799 8.89733 5.1259 8.89391 5.11882ZM8.8996 1.17201C8.8996 1.17201 8.89807 1.17604 8.89391 1.18118C8.89733 1.1741 8.8996 1.17201 8.8996 1.17201ZM8.88118 1.19392C8.87604 1.19808 8.87201 1.1996 8.87201 1.1996C8.87201 1.1996 8.87409 1.19734 8.88118 1.19392ZM11.2 8.8H10.5C9.80893 8.8 9.40129 8.80234 9.11039 8.84145C8.98174 8.85874 8.91774 8.87853 8.89 8.89C8.87853 8.91775 8.85874 8.98174 8.84144 9.11039C8.80233 9.4013 8.79999 9.80894 8.79999 10.5V11.2C8.79999 11.8911 8.80233 12.2987 8.84144 12.5896C8.85874 12.7183 8.87853 12.7823 8.89 12.81C8.91774 12.8215 8.98174 12.8413 9.11039 12.8586C9.40129 12.8977 9.80893 12.9 10.5 12.9H11.2C11.8911 12.9 12.2987 12.8977 12.5896 12.8586C12.7182 12.8413 12.7822 12.8215 12.81 12.81C12.8215 12.7823 12.8412 12.7183 12.8585 12.5896C12.8977 12.2987 12.9 11.8911 12.9 11.2V10.5C12.9 9.80894 12.8977 9.4013 12.8585 9.11039C12.8412 8.98174 12.8215 8.91774 12.81 8.89C12.7822 8.87853 12.7182 8.85874 12.5896 8.84145C12.2987 8.80234 11.8911 8.8 11.2 8.8ZM12.828 8.8996C12.828 8.8996 12.8239 8.89807 12.8188 8.89392C12.8259 8.89735 12.828 8.8996 12.828 8.8996ZM12.8061 8.88118C12.8019 8.87605 12.8004 8.87201 12.8004 8.87201C12.8004 8.87201 12.8027 8.87409 12.8061 8.88118ZM12.8004 12.828C12.8004 12.828 12.8019 12.824 12.8061 12.8188C12.8027 12.8259 12.8004 12.828 12.8004 12.828ZM12.8188 12.8061C12.8239 12.8019 12.828 12.8004 12.828 12.8004C12.828 12.8004 12.8259 12.8027 12.8188 12.8061ZM8.87201 12.8004C8.87201 12.8004 8.87604 12.8019 8.88118 12.8061C8.87409 12.8027 8.87201 12.8004 8.87201 12.8004ZM8.89391 12.8188C8.89807 12.824 8.8996 12.828 8.8996 12.828C8.8996 12.828 8.89733 12.8259 8.89391 12.8188ZM8.8996 8.87201C8.8996 8.87201 8.89808 8.87604 8.89391 8.88118C8.89733 8.87411 8.8996 8.87201 8.8996 8.87201ZM8.88118 8.89392C8.87603 8.89808 8.87201 8.8996 8.87201 8.8996C8.87201 8.8996 8.87409 8.89734 8.88118 8.89392ZM0.41005 0.410051C0 0.820101 0 1.48007 0 2.8V3.5C0 4.81993 0 5.4799 0.41005 5.88995C0.8201 6.3 1.48007 6.3 2.8 6.3H3.5C4.81993 6.3 5.4799 6.3 5.88995 5.88995C6.3 5.4799 6.3 4.81993 6.3 3.5V2.8C6.3 1.48007 6.3 0.820101 5.88995 0.410051C5.4799 0 4.81993 0 3.5 0H2.8C1.48007 0 0.8201 0 0.41005 0.410051ZM0.41005 8.11005C0 8.5201 0 9.18007 0 10.5V11.2C0 12.5199 0 13.1799 0.41005 13.5899C0.8201 14 1.48007 14 2.8 14H3.5C4.81993 14 5.4799 14 5.88995 13.5899C6.3 13.1799 6.3 12.5199 6.3 11.2V10.5C6.3 9.18007 6.3 8.5201 5.88995 8.11005C5.4799 7.7 4.81993 7.7 3.5 7.7H2.8C1.48007 7.7 0.8201 7.7 0.41005 8.11005ZM7.69999 2.8C7.69999 1.48007 7.69999 0.820101 8.11004 0.410051C8.52009 0 9.18006 0 10.5 0H11.2C12.5199 0 13.1799 0 13.5899 0.410051C14 0.820101 14 1.48007 14 2.8V3.5C14 4.81993 14 5.4799 13.5899 5.88995C13.1799 6.3 12.5199 6.3 11.2 6.3H10.5C9.18006 6.3 8.52009 6.3 8.11004 5.88995C7.69999 5.4799 7.69999 4.81993 7.69999 3.5V2.8ZM8.11004 8.11005C7.69999 8.5201 7.69999 9.18007 7.69999 10.5V11.2C7.69999 12.5199 7.69999 13.1799 8.11004 13.5899C8.52009 14 9.18006 14 10.5 14H11.2C12.5199 14 13.1799 14 13.5899 13.5899C14 13.1799 14 12.5199 14 11.2V10.5C14 9.18007 14 8.5201 13.5899 8.11005C13.1799 7.7 12.5199 7.7 11.2 7.7H10.5C9.18006 7.7 8.52009 7.7 8.11004 8.11005Z" fill="#102938" style="fill:#102938;fill:color(display-p3 0.0620 0.1626 0.2183);fill-opacity:1;"/>
</svg>
