<svg width="16" height="16" viewBox="0 0 16 16" fill="none" xmlns="http://www.w3.org/2000/svg">
<g clip-path="url(#clip0_18116_3895)">
<path fill-rule="evenodd" clip-rule="evenodd" d="M11.7799 3.72419C11.9322 3.49386 12.2424 3.43063 12.4727 3.58295C14.3381 4.81664 15.5 6.8617 15.5 9.17508C15.5 12.9909 12.0932 16 7.99999 16C3.90677 16 0.5 12.9909 0.5 9.17508C0.5 6.86728 1.62647 4.82096 3.4743 3.58445C3.7038 3.43088 4.01434 3.49243 4.16792 3.72193C4.32149 3.95143 4.25994 4.26197 4.03044 4.41555C2.45717 5.46833 1.5 7.20439 1.5 9.17508C1.5 12.3456 4.36123 15 7.99999 15C11.6388 15 14.5 12.3456 14.5 9.17508C14.5 7.20998 13.5172 5.47264 11.9211 4.41705C11.6908 4.26472 11.6275 3.95451 11.7799 3.72419Z" fill="#102938" style="fill:#102938;fill:color(display-p3 0.0620 0.1626 0.2183);fill-opacity:1;"/>
<path fill-rule="evenodd" clip-rule="evenodd" d="M3 8.5C3.27614 8.5 3.5 8.72386 3.5 9C3.5 11.2091 5.29086 13 7.49999 13C7.77614 13 7.99999 13.2239 7.99999 13.5C7.99999 13.7761 7.77614 14 7.49999 14C4.73857 14 2.5 11.7614 2.5 9C2.5 8.72386 2.72386 8.5 3 8.5Z" fill="#102938" style="fill:#102938;fill:color(display-p3 0.0620 0.1626 0.2183);fill-opacity:1;"/>
<path fill-rule="evenodd" clip-rule="evenodd" d="M4.43282 2.89226C5.28091 2.27488 6.37422 2.19393 7.31573 2.56845C7.59105 2.67797 7.83502 2.76949 8 2.82276C8.16497 2.76949 8.40894 2.67797 8.68426 2.56845C9.62578 2.19393 10.7191 2.27489 11.5672 2.89226C11.8702 3.11285 12.1903 3.35246 12.4591 3.56874C12.7099 3.7706 12.9679 3.9922 13.1002 4.16828C13.1887 4.28592 13.2207 4.43655 13.188 4.58001C13.1552 4.72348 13.0609 4.84522 12.9301 4.9128C12.5267 5.12134 11.6144 5.42679 10.5688 5.35833C10.6174 6.03495 10.4897 6.72457 10.2446 7.22129C10.1316 7.45032 9.86407 7.55734 9.62425 7.46949C9.33157 7.36228 8.95427 7.20255 8.59781 7.01546C8.39828 6.91074 8.18866 6.78898 8 6.65405C7.81134 6.78898 7.60171 6.91074 7.40218 7.01546C7.04572 7.20255 6.66841 7.36228 6.37574 7.46949C6.13591 7.55734 5.86843 7.45032 5.75539 7.22129C5.51024 6.72457 5.38259 6.03495 5.43114 5.35833C4.38559 5.42679 3.47324 5.12134 3.06985 4.9128C2.93912 4.84522 2.84481 4.72348 2.81203 4.58001C2.77925 4.43655 2.81134 4.28592 2.89974 4.16828C3.03206 3.9922 3.29004 3.7706 3.54093 3.56874C3.80974 3.35245 4.1298 3.11285 4.43282 2.89226ZM6.94611 3.49764C6.28962 3.23649 5.56367 3.30595 5.02136 3.70073C4.76075 3.89044 4.49408 4.08961 4.26342 4.27168C4.72357 4.37329 5.31908 4.42234 5.92328 4.27667C6.09677 4.23485 6.27939 4.28866 6.40249 4.41787C6.52558 4.54708 6.57047 4.7321 6.52029 4.90335C6.3848 5.3657 6.39747 5.90565 6.50016 6.34046C6.6444 6.27658 6.79353 6.20555 6.93746 6.13001C7.26139 5.95999 7.50998 5.79218 7.63452 5.65879C7.72908 5.5575 7.86143 5.5 8 5.5C8.13857 5.5 8.27092 5.5575 8.36548 5.65879C8.49001 5.79218 8.7386 5.95999 9.06254 6.13001C9.20646 6.20555 9.35559 6.27658 9.49982 6.34046C9.60252 5.90565 9.61519 5.3657 9.4797 4.90335C9.42952 4.7321 9.47441 4.54708 9.5975 4.41787C9.7206 4.28866 9.90322 4.23485 10.0767 4.27667C10.6809 4.42234 11.2764 4.37329 11.7366 4.27168C11.5059 4.08961 11.2392 3.89044 10.9786 3.70073C10.4363 3.30595 9.71037 3.23649 9.05388 3.49764C8.70967 3.63456 8.34533 3.77182 8.12325 3.82831C8.04237 3.84888 7.95763 3.84888 7.87675 3.82831C7.65467 3.77182 7.29032 3.63456 6.94611 3.49764Z" fill="#102938" style="fill:#102938;fill:color(display-p3 0.0620 0.1626 0.2183);fill-opacity:1;"/>
<path fill-rule="evenodd" clip-rule="evenodd" d="M9.99999 1C9.17157 1 8.49999 1.67157 8.49999 2.5V4C8.49999 4.27614 8.27614 4.5 7.99999 4.5C7.72385 4.5 7.49999 4.27614 7.49999 4V2.5C7.49999 1.11929 8.61928 0 9.99999 0H10.0741C10.3502 0 10.5741 0.223858 10.5741 0.5C10.5741 0.776142 10.3502 1 10.0741 1H9.99999Z" fill="#102938" style="fill:#102938;fill:color(display-p3 0.0620 0.1626 0.2183);fill-opacity:1;"/>
</g>
<defs>
<clipPath id="clip0_18116_3895">
<rect width="16" height="16" fill="white" style="fill:white;fill-opacity:1;"/>
</clipPath>
</defs>
</svg>
