<svg width="16" height="16" viewBox="0 0 16 16" fill="none" xmlns="http://www.w3.org/2000/svg">
<g clip-path="url(#clip0_18116_4746)">
<path d="M13.25 8.00001C13.6642 8.00001 14 6.99265 14 5.75001C14 4.50737 13.6642 3.50001 13.25 3.50001C12.8358 3.50001 12.5 4.50737 12.5 5.75001C12.5 6.99265 12.8358 8.00001 13.25 8.00001Z" fill="#102938" style="fill:#102938;fill:color(display-p3 0.0620 0.1626 0.2183);fill-opacity:1;"/>
<path fill-rule="evenodd" clip-rule="evenodd" d="M11.5334 10.28C11.6931 10.54 11.8713 10.7694 12.0677 10.9574C12.4011 11.2765 12.8143 11.5 13.2865 11.5C13.7603 11.5 14.1704 11.275 14.4984 10.953C14.8241 10.6331 15.0946 10.1949 15.3109 9.69274C15.7442 8.68667 16 7.33169 16 5.86128C16 4.39095 15.7443 2.98461 15.3149 1.92811C15.1007 1.40124 14.8334 0.936684 14.5119 0.595607C14.1902 0.254425 13.7764 0 13.2865 0C13.2788 0 13.2711 6.23379e-05 13.2635 0.000186367C13.259 6.74586e-05 13.2545 7.62939e-06 13.25 7.62939e-06H3.14345C3.10499 7.62939e-06 3.06665 0.00444615 3.0292 0.0132351C1.84877 0.290289 0 1.9802 0 5.86474V15.5C0 15.7762 0.223858 16 0.5 16H11.0729C11.2062 16 11.3339 15.9468 11.4278 15.8522C11.5217 15.7576 11.5739 15.6295 11.5729 15.4962L11.5334 10.28ZM11.5 5.85942V5.86128L11.5013 6.02713C11.5211 7.32244 11.7721 8.4712 12.1407 9.28961C12.3332 9.71698 12.548 10.0329 12.7592 10.235C12.9691 10.4359 13.1473 10.5 13.2865 10.5C13.4239 10.5 13.5961 10.4375 13.7978 10.2394C14.0017 10.0392 14.2082 9.72487 14.3925 9.29712C14.7602 8.44333 15 7.22893 15 5.86128C15 4.49356 14.7602 3.21926 14.3885 2.30464C14.202 1.84594 13.9923 1.50231 13.7843 1.28159C13.5763 1.06098 13.4077 1 13.2865 1C13.1632 1 12.9889 1.06285 12.7729 1.28619C12.5577 1.50864 12.3397 1.85366 12.145 2.31192C11.7567 3.22555 11.5002 4.49692 11.5 5.85942ZM11.2246 1.92083C11.3685 1.58216 11.5343 1.26995 11.7215 1.00001H3.2085C2.58703 1.18696 1 2.37124 1 5.86474V15H10.5691L10.5013 6.03824C10.5004 5.97945 10.5 5.92046 10.5 5.86128C10.5 4.38643 10.7754 2.9779 11.2246 1.92083Z" fill="#102938" style="fill:#102938;fill:color(display-p3 0.0620 0.1626 0.2183);fill-opacity:1;"/>
</g>
<defs>
<clipPath id="clip0_18116_4746">
<rect width="16" height="16" fill="white" style="fill:white;fill-opacity:1;"/>
</clipPath>
</defs>
</svg>
