<svg width="16" height="16" viewBox="0 0 16 16" fill="none" xmlns="http://www.w3.org/2000/svg">
<g clip-path="url(#clip0_18116_9071)">
<path fill-rule="evenodd" clip-rule="evenodd" d="M5.69545 1.26536C5.80383 0.816354 6.20563 0.5 6.66753 0.5H9.38019C9.84209 0.5 10.2439 0.816354 10.3523 1.26536L10.6788 2.61797C10.9838 2.7687 11.2741 2.94454 11.5469 3.14275L12.9085 2.74124C13.3516 2.6106 13.8264 2.80039 14.0574 3.20041L15.4137 5.54964C15.6447 5.94966 15.5716 6.4558 15.2369 6.77417L13.8615 8.08262L13.1723 7.3581L14.5477 6.04964L13.1914 3.70041L11.5872 4.17344C11.4309 4.21953 11.262 4.18656 11.1345 4.08511C10.8032 3.82155 10.438 3.59928 10.0466 3.4259C9.90435 3.3629 9.79953 3.23728 9.76303 3.08605L9.38019 1.5L6.66753 1.5L6.28469 3.08607C6.24819 3.23729 6.14338 3.36291 6.00114 3.42591C5.60973 3.59928 5.24452 3.82155 4.91332 4.08508C4.78582 4.18654 4.61688 4.2195 4.46058 4.17341L2.85636 3.70036L1.50003 6.04959L2.87549 7.35807C2.98102 7.45846 3.03752 7.59988 3.03024 7.74535C3.02602 7.82966 3.02388 7.91456 3.02388 8C3.02388 8.22842 3.03916 8.453 3.0687 8.67284C3.09005 8.83172 3.03393 8.99121 2.91778 9.1017L1.50003 10.4504L2.85636 12.7996L4.95863 12.1797C5.09628 12.1391 5.24473 12.1597 5.36622 12.236C5.5306 12.3394 5.70137 12.4335 5.8778 12.5174C6.01394 12.5822 6.11357 12.705 6.14895 12.8516L6.66753 15H7.52387V16H6.66753C6.20563 16 5.80383 15.6836 5.69545 15.2346L5.23131 13.3118C5.16362 13.2761 5.0967 13.2392 5.03058 13.2011L3.1392 13.7588C2.69616 13.8895 2.22129 13.6997 1.99034 13.2996L0.634009 10.9504C0.403058 10.5504 0.476129 10.0442 0.810788 9.72588L2.04863 8.54832C2.03224 8.36763 2.02388 8.18473 2.02388 8C2.02388 7.97615 2.02402 7.95233 2.0243 7.92854L0.810784 6.77412C0.476124 6.45576 0.403054 5.94961 0.634004 5.54959L1.99033 3.20036C2.22128 2.80034 2.69615 2.61055 3.13919 2.74119L4.50087 3.14272C4.7737 2.94452 5.06396 2.7687 5.36896 2.61798L5.69545 1.26536ZM8.02387 6C6.78123 6 5.77388 7.00736 5.77388 8.25C5.77388 9.49264 6.78123 10.5 8.02387 10.5V11.5C6.22895 11.5 4.77388 10.0449 4.77388 8.25C4.77388 6.45507 6.22895 5 8.02387 5C9.8188 5 11.2739 6.45507 11.2739 8.25H10.2739C10.2739 7.00736 9.26651 6 8.02387 6ZM11.5239 9.5C11.5239 9.22386 11.7477 9 12.0239 9H15.5239C15.8 9 16.0239 9.22386 16.0239 9.5V13C16.0239 13.2761 15.8 13.5 15.5239 13.5H14.5239V12.5H15.0239V10H12.5239V10.5H11.5239V9.5ZM9.02387 12C9.02387 11.7239 9.24773 11.5 9.52387 11.5H13.0239C13.3 11.5 13.5239 11.7239 13.5239 12V15.5C13.5239 15.7761 13.3 16 13.0239 16H9.52387C9.24773 16 9.02387 15.7761 9.02387 15.5V12ZM10.0239 12.5V15H12.5239V12.5H10.0239Z" fill="#102938" style="fill:#102938;fill:color(display-p3 0.0620 0.1626 0.2183);fill-opacity:1;"/>
</g>
<defs>
<clipPath id="clip0_18116_9071">
<rect width="16" height="16" fill="white" style="fill:white;fill-opacity:1;"/>
</clipPath>
</defs>
</svg>
