<svg width="16" height="16" viewBox="0 0 16 16" fill="none" xmlns="http://www.w3.org/2000/svg">
<g clip-path="url(#clip0_18116_4716)">
<path fill-rule="evenodd" clip-rule="evenodd" d="M1 0C0.723857 0 0.5 0.223858 0.5 0.5C0.5 0.776142 0.723857 1 1 1H4.03788V5H2C1.72386 5 1.5 5.22386 1.5 5.5C1.5 5.77614 1.72386 6 2 6H4.03788V9.5H2.5C2.22386 9.5 2 9.72386 2 10C2 10.2761 2.22386 10.5 2.5 10.5H4.03788V12.4048C4.03788 12.5471 4.09852 12.6827 4.20462 12.7775L7.66674 15.8728C7.85575 16.0417 8.14131 16.0425 8.33123 15.8745L11.8312 12.7793C11.9385 12.6844 12 12.548 12 12.4048V10.5H13.5C13.7761 10.5 14 10.2761 14 10C14 9.72386 13.7761 9.5 13.5 9.5H12V6H14C14.2761 6 14.5 5.77614 14.5 5.5C14.5 5.22386 14.2761 5 14 5H12V1H15.25C15.5261 1 15.75 0.776142 15.75 0.5C15.75 0.223858 15.5261 0 15.25 0H11.5C11.2238 0 11 0.223858 11 0.5L11 5.5V10L11 12.1795L8.0018 14.8309L5.03788 12.1811V0.5C5.03788 0.223858 4.81402 0 4.53788 0H1ZM6.5 0.5C6.5 0.223858 6.72385 0 7 0H8.99999C9.27614 0 9.49999 0.223858 9.49999 0.5V2.49989C9.68326 2.50004 9.85967 2.60131 9.94721 2.7764C10.0707 3.02339 9.97059 3.32372 9.7236 3.44722L9.49999 3.55902V5.49989C9.68326 5.50004 9.85967 5.60131 9.94721 5.7764C10.0707 6.02339 9.97059 6.32372 9.7236 6.44722L9.49999 6.55902V8.49989C9.68326 8.50004 9.85967 8.60131 9.94721 8.7764C10.0707 9.02339 9.97059 9.32372 9.7236 9.44722L9.49999 9.55902V11.6552C9.49999 11.7627 9.46536 11.8673 9.40123 11.9535L8.40123 13.2984C8.30689 13.4252 8.1581 13.5 7.99999 13.5C7.84189 13.5 7.6931 13.4252 7.59876 13.2984L6.59876 11.9535C6.53463 11.8673 6.5 11.7627 6.5 11.6552V11.0001C6.31672 11 6.14032 10.8987 6.05278 10.7236C5.92929 10.4766 6.0294 10.1763 6.27639 10.0528L6.5 9.94099V8.00011C6.31672 7.99997 6.14032 7.89869 6.05278 7.72361C5.92929 7.47662 6.0294 7.17628 6.27639 7.05279L6.5 6.94099V5.00011C6.31672 4.99997 6.14032 4.89869 6.05278 4.72361C5.92929 4.47662 6.0294 4.17628 6.27639 4.05279L6.5 3.94099V0.5ZM8.49999 7.05902V8.94098L7.5 9.44099V7.55902L8.49999 7.05902ZM7.5 11.4896V10.559L8.49999 10.059V11.4896L7.99999 12.1621L7.5 11.4896ZM8.49999 5.94099L7.5 6.44099V4.55902L8.49999 4.05902V5.94099ZM8.49999 1V2.94099L7.5 3.44099V1H8.49999Z" fill="#102938" style="fill:#102938;fill:color(display-p3 0.0620 0.1626 0.2183);fill-opacity:1;"/>
</g>
<defs>
<clipPath id="clip0_18116_4716">
<rect width="16" height="16" fill="white" style="fill:white;fill-opacity:1;"/>
</clipPath>
</defs>
</svg>
