<svg width="16" height="16" viewBox="0 0 16 16" fill="none" xmlns="http://www.w3.org/2000/svg">
<g clip-path="url(#clip0_18116_14832)">
<path d="M3.47272 14.5455C3.17148 14.5455 2.92727 14.3013 2.92727 14V11.5273H1.96363C1.66239 11.5273 1.41818 11.2831 1.41818 10.9819V10.9819C1.41818 10.6806 1.66239 10.4364 1.96363 10.4364H2.92727V6.69095L1.08193 8.09342C0.845631 8.273 0.508601 8.22769 0.328128 7.99207V7.99207C0.146986 7.75558 0.192113 7.41698 0.42887 7.23618L7.99999 1.45459L15.562 7.22924C15.8029 7.41314 15.8466 7.75857 15.6591 7.99666V7.99666C15.4752 8.2303 15.1376 8.27255 14.9017 8.09143L13.0545 6.67277V10.4364H14.0182C14.3194 10.4364 14.5636 10.6806 14.5636 10.9819V10.9819C14.5636 11.2831 14.3194 11.5273 14.0182 11.5273H13.0545V14C13.0545 14.3013 12.8103 14.5455 12.5091 14.5455V14.5455C12.2078 14.5455 11.9636 14.3013 11.9636 14V11.5273H8.54545V14C8.54545 14.3013 8.30124 14.5455 7.99999 14.5455V14.5455C7.69875 14.5455 7.45454 14.3013 7.45454 14V11.5273H4.01818V14C4.01818 14.3013 3.77397 14.5455 3.47272 14.5455V14.5455ZM4.01818 10.4364H7.45454V3.23641L4.01818 5.85459V10.4364ZM8.54545 10.4364H11.9636V5.85459L8.54545 3.23641V10.4364Z" fill="#102938" style="fill:#102938;fill:color(display-p3 0.0620 0.1626 0.2183);fill-opacity:1;"/>
</g>
<defs>
<clipPath id="clip0_18116_14832">
<rect width="16" height="16" fill="white" style="fill:white;fill-opacity:1;"/>
</clipPath>
</defs>
</svg>
