<svg width="16" height="16" viewBox="0 0 16 16" fill="none" xmlns="http://www.w3.org/2000/svg">
<path fill-rule="evenodd" clip-rule="evenodd" d="M8.25 1C6.45507 1 5 2.45507 5 4.25C5 6.04493 6.45507 7.5 8.25 7.5C10.0449 7.5 11.5 6.04493 11.5 4.25C11.5 2.45507 10.0449 1 8.25 1ZM4 4.25C4 1.90279 5.90279 0 8.25 0C10.5972 0 12.5 1.90279 12.5 4.25C12.5 6.59721 10.5972 8.5 8.25 8.5C5.90279 8.5 4 6.59721 4 4.25ZM8.25 3.5C7.83578 3.5 7.5 3.83579 7.5 4.25C7.5 4.66421 7.83578 5 8.25 5C8.66421 5 9 4.66421 9 4.25C9 3.83579 8.66421 3.5 8.25 3.5ZM6.5 4.25C6.5 3.2835 7.2835 2.5 8.25 2.5C9.21649 2.5 9.99999 3.2835 9.99999 4.25C9.99999 5.2165 9.21649 6 8.25 6C7.2835 6 6.5 5.2165 6.5 4.25ZM2.5 10.5C2.5 10.2239 2.72386 10 3 10H4C5.10457 10 6 10.8954 6 12C6 12.7667 5.56859 13.4326 4.93527 13.7683L5.84553 14.6386C6.04512 14.8294 6.05223 15.1459 5.86139 15.3455C5.67056 15.5451 5.35406 15.5522 5.15446 15.3614L3.73058 14H3.5V15C3.5 15.2761 3.27614 15.5 3 15.5C2.72386 15.5 2.5 15.2761 2.5 15V10.5ZM3.5 13H4C4.55228 13 5 12.5523 5 12C5 11.4477 4.55228 11 4 11H3.5V13ZM7 10.5C7 10.2239 7.22385 10 7.5 10H9.49999C9.77614 10 9.99999 10.2239 9.99999 10.5C9.99999 10.7761 9.77614 11 9.49999 11H8V12H9C9.27614 12 9.49999 12.2239 9.49999 12.5C9.49999 12.7761 9.27614 13 9 13H8V14.5H9.49999C9.77614 14.5 9.99999 14.7239 9.99999 15C9.99999 15.2761 9.77614 15.5 9.49999 15.5H7.5C7.22385 15.5 7 15.2761 7 15V10.5ZM13 11C12.2881 11 11.5 11.7389 11.5 12.75C11.5 13.7611 12.2881 14.5 13 14.5C13.2761 14.5 13.5 14.7239 13.5 15C13.5 15.2761 13.2761 15.5 13 15.5C11.6507 15.5 10.5 14.2242 10.5 12.75C10.5 11.2758 11.6507 10 13 10C13.2761 10 13.5 10.2239 13.5 10.5C13.5 10.7761 13.2761 11 13 11Z" fill="#102938" style="fill:#102938;fill:color(display-p3 0.0620 0.1626 0.2183);fill-opacity:1;"/>
</svg>
