<svg width="16" height="16" viewBox="0 0 16 16" fill="none" xmlns="http://www.w3.org/2000/svg">
<g clip-path="url(#clip0_18116_14536)">
<path d="M11.9165 10.5988C11.9711 10.3281 11.7958 10.0644 11.5251 10.0098C11.2544 9.95531 10.9908 10.1305 10.9362 10.4012C10.68 11.6727 9.67583 12.6769 8.40075 12.9351C8.1301 12.9899 7.95513 13.2537 8.00994 13.5244C8.06476 13.795 8.32859 13.97 8.59924 13.9152C10.2674 13.5774 11.5806 12.2658 11.9165 10.5988Z" fill="#102938" style="fill:#102938;fill:color(display-p3 0.0620 0.1626 0.2183);fill-opacity:1;"/>
<path fill-rule="evenodd" clip-rule="evenodd" d="M8.38914 0.186046C8.29431 0.0685029 8.15143 0.000122289 8.0004 1.61964e-07C7.84937 -0.000121255 7.70638 0.0680289 7.61136 0.185419C7.21929 0.669787 6.83629 1.13473 6.46664 1.58346C5.37958 2.90308 4.40798 4.08254 3.6609 5.20354C2.64986 6.72062 2 8.19924 2 9.88792C2 13.254 4.67683 16 8 16C11.3232 16 14 13.254 14 9.88792C14 8.19876 13.3472 6.71997 12.3351 5.20329C11.5959 4.09569 10.6378 2.93038 9.56812 1.62936C9.18763 1.16659 8.79303 0.68666 8.38914 0.186046ZM3 9.88792C3 8.47713 3.5361 7.19401 4.49304 5.75811C5.20963 4.68286 6.13435 3.56019 7.20953 2.25484C7.46461 1.94516 7.72816 1.62519 7.9994 1.29314C8.28354 1.64196 8.55933 1.97741 8.82587 2.30161C9.88273 3.58711 10.7941 4.69558 11.5033 5.75836C12.4617 7.19467 13 8.47761 13 9.88792C13 12.7208 10.752 15 8 15C5.24804 15 3 12.7208 3 9.88792Z" fill="#102938" style="fill:#102938;fill:color(display-p3 0.0620 0.1626 0.2183);fill-opacity:1;"/>
</g>
<defs>
<clipPath id="clip0_18116_14536">
<rect width="16" height="16" fill="white" style="fill:white;fill-opacity:1;"/>
</clipPath>
</defs>
</svg>
