<svg width="920" height="48" viewBox="0 0 920 48" fill="none" xmlns="http://www.w3.org/2000/svg">
<path d="M0 12C0 5.37258 5.37258 0 12 0H38.2549V24H12C5.37259 24 0 18.6274 0 12Z" fill="#FFB306" style="fill:#FFB306;fill:color(display-p3 1.0000 0.7020 0.0235);fill-opacity:1;"/>
<path d="M48 36C48 42.6274 42.6274 48 36 48L10.2468 48L10.2468 24L36 24C42.6274 24 48 29.3726 48 36Z" fill="#0DB25A" style="fill:#0DB25A;fill:color(display-p3 0.0510 0.6980 0.3529);fill-opacity:1;"/>
<path d="M23.9995 36C23.9995 42.6274 18.6269 48 11.9995 48L-0.000303268 48L-0.000302169 35.4218C-0.000301617 29.1137 5.11342 24 11.4215 24L11.9995 24C18.6269 24 23.9995 29.3726 23.9995 36Z" fill="#0067A0" style="fill:#0067A0;fill:color(display-p3 0.0000 0.4039 0.6275);fill-opacity:1;"/>
<path d="M23.9995 12C23.9995 5.37258 29.3721 0 35.9995 0L47.9993 0V12.5782C47.9993 18.8863 42.8856 24 36.5775 24H35.9995C29.3721 24 23.9995 18.6274 23.9995 12Z" fill="#FF6701" style="fill:#FF6701;fill:color(display-p3 1.0000 0.4039 0.0039);fill-opacity:1;"/>
<path d="M278.554 43.4064C276.87 43.4064 275.277 43.1788 273.775 42.7236C272.273 42.2684 270.93 41.6084 269.746 40.7435C268.563 39.8331 267.607 38.7179 266.879 37.3978C266.196 36.0322 265.854 34.4389 265.854 32.6181C265.854 30.2966 266.31 28.4075 267.22 26.9509C268.13 25.4487 269.36 24.3107 270.907 23.5368C272.5 22.763 274.298 22.2395 276.301 21.9664C278.304 21.6477 280.398 21.4884 282.583 21.4884H289.616C289.616 19.8952 289.365 18.5296 288.865 17.3916C288.364 16.2081 287.567 15.2749 286.475 14.5921C285.428 13.9093 284.062 13.5679 282.378 13.5679C281.286 13.5679 280.261 13.7044 279.306 13.9776C278.395 14.2052 277.599 14.5921 276.916 15.1383C276.278 15.6391 275.823 16.2991 275.55 17.1185H267.015C267.334 15.2521 267.971 13.6589 268.927 12.3388C269.928 10.9732 271.135 9.85798 272.546 8.9931C274.002 8.12821 275.596 7.49092 277.325 7.08124C279.055 6.62604 280.808 6.39844 282.583 6.39844C287.818 6.39844 291.619 7.90061 293.986 10.9049C296.398 13.9093 297.604 18.1199 297.604 23.5368V42.9285H290.23L290.025 38.2854C288.978 39.8331 287.727 40.9711 286.27 41.6994C284.813 42.4278 283.402 42.883 282.037 43.065C280.671 43.2926 279.51 43.4064 278.554 43.4064ZM280.193 36.6467C282.014 36.6467 283.63 36.3053 285.041 35.6225C286.452 34.9397 287.567 33.9837 288.387 32.7547C289.252 31.5256 289.684 30.1145 289.684 28.5213V27.3605H283.129C282.037 27.3605 280.944 27.4061 279.852 27.4971C278.805 27.5426 277.849 27.7247 276.984 28.0433C276.119 28.3165 275.414 28.7489 274.867 29.3407C274.367 29.9324 274.116 30.7746 274.116 31.867C274.116 32.9595 274.389 33.8472 274.936 34.53C275.527 35.2128 276.278 35.7363 277.189 36.1004C278.145 36.4646 279.146 36.6467 280.193 36.6467Z" fill="white" style="fill:white;fill-opacity:1;"/>
<path d="M241.427 42.9285V6.94468H249.006L249.484 11.656C250.395 10.2904 251.419 9.24346 252.557 8.51513C253.74 7.74129 254.992 7.19504 256.312 6.8764C257.678 6.55776 259.043 6.39844 260.409 6.39844C260.91 6.39844 261.365 6.39844 261.774 6.39844C262.23 6.39844 262.594 6.4212 262.867 6.46672V14.3872H260.682C258.315 14.3872 256.312 14.8425 254.673 15.7529C253.035 16.6633 251.806 17.9606 250.986 19.6448C250.167 21.3291 249.757 23.4003 249.757 25.8584V42.9285H241.427Z" fill="white" style="fill:white;fill-opacity:1;"/>
<path d="M219.019 43.4064C215.286 43.4064 212.1 42.6326 209.459 41.0849C206.865 39.5372 204.885 37.3978 203.519 34.6665C202.199 31.8898 201.539 28.6806 201.539 25.039C201.539 21.3974 202.222 18.1882 203.587 15.4115C204.999 12.5892 207.001 10.3815 209.596 8.78825C212.236 7.19504 215.4 6.39844 219.087 6.39844C221.818 6.39844 224.208 6.89916 226.256 7.90061C228.305 8.85653 230.012 10.1766 231.377 11.8609C232.788 13.5451 233.835 15.457 234.518 17.5964C235.201 19.7359 235.519 21.9891 235.474 24.3562C235.428 24.9024 235.383 25.4487 235.337 25.9949C235.292 26.4957 235.223 27.0419 235.132 27.6337H209.869C210.006 29.2269 210.415 30.6835 211.098 32.0036C211.826 33.3237 212.828 34.3707 214.102 35.1445C215.423 35.9184 217.061 36.3053 219.019 36.3053C220.157 36.3053 221.249 36.1687 222.296 35.8956C223.343 35.577 224.253 35.1217 225.027 34.53C225.846 33.9382 226.393 33.1871 226.666 32.2767H234.996C234.404 34.8714 233.312 36.9881 231.718 38.6268C230.125 40.2655 228.213 41.4718 225.983 42.2457C223.798 43.0195 221.477 43.4064 219.019 43.4064ZM210.006 21.4201H227.349C227.349 19.918 227.007 18.5524 226.324 17.3233C225.642 16.0943 224.663 15.1383 223.388 14.4555C222.159 13.7272 220.657 13.363 218.882 13.363C216.97 13.363 215.377 13.75 214.102 14.5238C212.828 15.2977 211.849 16.2991 211.166 17.5282C210.484 18.7572 210.097 20.0545 210.006 21.4201Z" fill="white" style="fill:white;fill-opacity:1;"/>
<path d="M152.488 42.9291L141.222 6.94531H150.439L157.677 33.7795L165.393 6.94531H175.225L182.94 33.7795L190.11 6.94531H199.191L187.925 42.9291H177.956L170.172 16.9825L162.457 42.9291H152.488Z" fill="white" style="fill:white;fill-opacity:1;"/>
<path d="M122.498 43.4064C118.765 43.4064 115.579 42.6326 112.939 41.0849C110.344 39.5372 108.364 37.3978 106.999 34.6665C105.679 31.8898 105.019 28.6806 105.019 25.039C105.019 21.3974 105.701 18.1882 107.067 15.4115C108.478 12.5892 110.481 10.3815 113.076 8.78825C115.716 7.19504 118.879 6.39844 122.566 6.39844C125.297 6.39844 127.687 6.89916 129.736 7.90061C131.784 8.85653 133.491 10.1766 134.857 11.8609C136.268 13.5451 137.315 15.457 137.997 17.5964C138.68 19.7359 138.999 21.9891 138.953 24.3562C138.908 24.9024 138.862 25.4487 138.817 25.9949C138.771 26.4957 138.703 27.0419 138.612 27.6337H113.349C113.485 29.2269 113.895 30.6835 114.578 32.0036C115.306 33.3237 116.307 34.3707 117.582 35.1445C118.902 35.9184 120.541 36.3053 122.498 36.3053C123.636 36.3053 124.729 36.1687 125.775 35.8956C126.822 35.577 127.733 35.1217 128.507 34.53C129.326 33.9382 129.872 33.1871 130.145 32.2767H138.475C137.884 34.8714 136.791 36.9881 135.198 38.6268C133.605 40.2655 131.693 41.4718 129.463 42.2457C127.278 43.0195 124.956 43.4064 122.498 43.4064ZM113.485 21.4201H130.828C130.828 19.918 130.487 18.5524 129.804 17.3233C129.121 16.0943 128.142 15.1383 126.868 14.4555C125.639 13.7272 124.137 13.363 122.361 13.363C120.45 13.363 118.856 13.75 117.582 14.5238C116.307 15.2977 115.329 16.2991 114.646 17.5282C113.963 18.7572 113.576 20.0545 113.485 21.4201Z" fill="white" style="fill:white;fill-opacity:1;"/>
<path d="M85.986 43.4064C84.2562 43.4064 82.5265 43.2244 80.7967 42.8602C79.1125 42.496 77.5193 41.9043 76.0172 41.0849C74.5151 40.22 73.2633 39.0593 72.2618 37.6026C71.2604 36.146 70.6004 34.3251 70.2817 32.1402H78.6801C79.0442 33.1416 79.6132 33.961 80.3871 34.5983C81.2064 35.19 82.1396 35.6452 83.1865 35.9639C84.279 36.237 85.3487 36.3736 86.3956 36.3736C87.0329 36.3736 87.7157 36.328 88.444 36.237C89.2179 36.146 89.9234 35.9639 90.5607 35.6908C91.2435 35.4176 91.7897 35.0307 92.1994 34.53C92.6091 33.9837 92.8139 33.2782 92.8139 32.4133C92.8139 31.5939 92.5863 30.9566 92.1311 30.5014C91.6759 30.0007 91.0614 29.6138 90.2876 29.3407C89.5137 29.022 88.5806 28.7717 87.4881 28.5896C85.5308 28.1799 83.4369 27.7475 81.2064 27.2923C78.976 26.7915 77.0414 26.0177 75.4027 24.9707C74.7199 24.561 74.1281 24.0831 73.6274 23.5368C73.1267 22.9906 72.6943 22.3988 72.3301 21.7615C72.0115 21.0787 71.7611 20.3504 71.579 19.5766C71.4425 18.8027 71.3742 17.9606 71.3742 17.0502C71.3742 15.1383 71.7611 13.5224 72.535 12.2023C73.3543 10.8367 74.424 9.74418 75.7441 8.92482C77.1097 8.05993 78.6573 7.42264 80.3871 7.01296C82.1168 6.60328 83.8921 6.39844 85.7128 6.39844C88.1709 6.39844 90.4014 6.78536 92.4042 7.55921C94.4071 8.33305 96.0685 9.51658 97.3886 11.1098C98.7542 12.703 99.5735 14.7287 99.8467 17.1867H91.9263C91.6987 16.0487 90.9931 15.1383 89.8096 14.4555C88.6716 13.7727 87.215 13.4313 85.4397 13.4313C84.8025 13.4313 84.1424 13.4996 83.4596 13.6362C82.7768 13.7272 82.1168 13.9093 81.4795 14.1824C80.8878 14.41 80.3871 14.7742 79.9774 15.2749C79.6132 15.7756 79.4312 16.3901 79.4312 17.1185C79.4312 17.8013 79.5905 18.393 79.9091 18.8938C80.2733 19.3945 80.7967 19.8269 81.4795 20.1911C82.2078 20.5097 83.05 20.7829 84.0059 21.0105C85.5535 21.3291 87.1695 21.6477 88.8537 21.9664C90.5379 22.285 91.9945 22.6037 93.2236 22.9223C94.6802 23.332 96.0003 23.9238 97.1838 24.6976C98.3673 25.4259 99.2777 26.4046 99.9149 27.6337C100.598 28.8172 100.939 30.3421 100.939 32.2084C100.939 34.3934 100.484 36.2142 99.5735 37.6709C98.7087 39.1275 97.5479 40.2655 96.0913 41.0849C94.6347 41.9043 93.0187 42.496 91.2435 42.8602C89.4682 43.2244 87.7157 43.4064 85.986 43.4064Z" fill="white" style="fill:white;fill-opacity:1;"/>
<path d="M912 8L880 40M880 8L912 40" stroke="white" style="stroke:white;stroke-opacity:1;" stroke-width="5" stroke-linecap="round" stroke-linejoin="round"/>
</svg>
